<?xml version="1.0" encoding="UTF-8" standalone="no"?>
<!-- Created with Inkscape (http://www.inkscape.org/) -->

<svg
   xmlns:dc="http://purl.org/dc/elements/1.1/"
   xmlns:cc="http://creativecommons.org/ns#"
   xmlns:rdf="http://www.w3.org/1999/02/22-rdf-syntax-ns#"
   xmlns:svg="http://www.w3.org/2000/svg"
   xmlns="http://www.w3.org/2000/svg"
   xmlns:sodipodi="http://sodipodi.sourceforge.net/DTD/sodipodi-0.dtd"
   xmlns:inkscape="http://www.inkscape.org/namespaces/inkscape"
   width="230"
   height="131.52446"
   viewBox="0 0 229.99999 131.52446"
   id="svg5478"
   version="1.1"
   inkscape:version="0.91 r"
   sodipodi:docname="logo.svg">
  <defs
     id="defs5480">
    <clipPath
       id="clipPath7039-0-8"
       clipPathUnits="userSpaceOnUse">
      <path
         inkscape:connector-curvature="0"
         id="path7041-6-2"
         d="m 23.5628,113.539 55.8447,0 0,-55.8444 -55.8447,0 0,55.8444 z" />
    </clipPath>
    <clipPath
       id="clipPath7071-8-4"
       clipPathUnits="userSpaceOnUse">
      <path
         inkscape:connector-curvature="0"
         id="path7073-3-3"
         d="m 66.361,113.373 55.845,0 0,-55.845 -55.845,0 0,55.845 z" />
    </clipPath>
    <clipPath
       id="clipPath7055-5-4"
       clipPathUnits="userSpaceOnUse">
      <path
         inkscape:connector-curvature="0"
         id="path7057-6-0"
         d="m 44.9619,113.937 55.8451,0 0,-55.8445 -55.8451,0 0,55.8445 z" />
    </clipPath>
    <clipPath
       id="clipPath5425"
       clipPathUnits="userSpaceOnUse">
      <path
         inkscape:connector-curvature="0"
         id="path5427"
         d="m 44.9619,113.937 55.8451,0 0,-55.8445 -55.8451,0 0,55.8445 z" />
    </clipPath>
    <clipPath
       id="clipPath5429"
       clipPathUnits="userSpaceOnUse">
      <path
         inkscape:connector-curvature="0"
         id="path5431"
         d="m 23.5628,113.539 55.8447,0 0,-55.8444 -55.8447,0 0,55.8444 z" />
    </clipPath>
    <clipPath
       id="clipPath5433"
       clipPathUnits="userSpaceOnUse">
      <path
         inkscape:connector-curvature="0"
         id="path5435"
         d="m 66.361,113.373 55.845,0 0,-55.845 -55.845,0 0,55.845 z" />
    </clipPath>
  </defs>
  <sodipodi:namedview
     id="base"
     pagecolor="#ffffff"
     bordercolor="#666666"
     borderopacity="1.0"
     inkscape:pageopacity="0.0"
     inkscape:pageshadow="2"
     inkscape:zoom="0.35"
     inkscape:cx="-547.5"
     inkscape:cy="-9.9468433"
     inkscape:document-units="px"
     inkscape:current-layer="layer1"
     showgrid="false"
     fit-margin-top="0"
     fit-margin-left="0"
     fit-margin-right="0"
     fit-margin-bottom="0"
     units="px"
     inkscape:window-width="1855"
     inkscape:window-height="1056"
     inkscape:window-x="65"
     inkscape:window-y="24"
     inkscape:window-maximized="1" />
  <metadata
     id="metadata5483">
    <rdf:RDF>
      <cc:Work
         rdf:about="">
        <dc:format>image/svg+xml</dc:format>
        <dc:type
           rdf:resource="http://purl.org/dc/dcmitype/StillImage" />
        <dc:title></dc:title>
      </cc:Work>
    </rdf:RDF>
  </metadata>
  <g
     inkscape:label="Layer 1"
     inkscape:groupmode="layer"
     id="layer1"
     transform="translate(-209.64286,-390.8909)">
    <g
       style="display:inline"
       transform="matrix(0.49282278,0,0,0.49282274,-153.43549,-1842.6517)"
       id="g5329">
      <g
         style="fill:#ffba2a;fill-opacity:0.68627451"
         id="g5331"
         transform="matrix(4.7311992,0,0,-4.7311992,625.25177,5071.1996)">
        <g
           style="fill:#ffba2a;fill-opacity:0.68627451"
           id="g5333" />
        <g
           style="fill:#ffba2a;fill-opacity:0.68627451"
           id="g5335">
          <g
             style="opacity:0.69999701;fill:#ffba2a;fill-opacity:0.68627451"
             id="g5337"
             clip-path="url(#clipPath7039-0-8)">
            <g
               style="fill:#ffba2a;fill-opacity:0.68627451"
               id="g5339"
               transform="translate(79.4075,85.617)">
              <path
                 inkscape:connector-curvature="0"
                 id="path5341"
                 style="fill:#ffba2a;fill-opacity:0.68627451;fill-rule:nonzero;stroke:none"
                 d="m 0,0 c 0,-15.421 -12.501,-27.922 -27.922,-27.922 -15.421,0 -27.923,12.501 -27.923,27.922 0,15.421 12.502,27.922 27.923,27.922 C -12.501,27.922 0,15.421 0,0" />
            </g>
          </g>
        </g>
      </g>
      <g
         style="fill:#ff8e2a;fill-opacity:0.68627451"
         id="g5343"
         transform="matrix(4.7311992,0,0,-4.7311992,625.25177,5071.1996)">
        <g
           style="fill:#ff8e2a;fill-opacity:0.68627451"
           id="g5345" />
        <g
           style="fill:#ff8e2a;fill-opacity:0.68627451"
           id="g5347">
          <g
             style="opacity:0.75;fill:#ff8e2a;fill-opacity:0.68627451"
             id="g5349"
             clip-path="url(#clipPath7071-8-4)">
            <g
               style="fill:#ff8e2a;fill-opacity:0.68627451"
               id="g5351"
               transform="translate(122.2057,85.4503)">
              <path
                 inkscape:connector-curvature="0"
                 id="path5353"
                 style="fill:#ff8e2a;fill-opacity:0.68627451;fill-rule:nonzero;stroke:none"
                 d="m 0,0 c 0,-15.421 -12.501,-27.922 -27.922,-27.922 -15.421,0 -27.923,12.501 -27.923,27.922 0,15.421 12.502,27.922 27.923,27.922 C -12.501,27.922 0,15.421 0,0" />
            </g>
          </g>
        </g>
      </g>
      <g
         style="fill:#b30900;fill-opacity:0.68627451"
         id="g5355"
         transform="matrix(4.7311992,0,0,-4.7311992,625.25177,5071.1996)">
        <g
           style="fill:#b30900;fill-opacity:0.68627451"
           id="g5357" />
        <g
           style="fill:#b30900;fill-opacity:0.68627451"
           id="g5359">
          <g
             style="opacity:0.75;fill:#b30900;fill-opacity:0.68627451"
             id="g5361"
             clip-path="url(#clipPath7055-5-4)">
            <g
               style="fill:#b30900;fill-opacity:0.68627451"
               id="g5363"
               transform="translate(100.8066,86.0148)">
              <path
                 inkscape:connector-curvature="0"
                 id="path5365"
                 style="fill:#b30900;fill-opacity:0.68627451;fill-rule:nonzero;stroke:none"
                 d="m 0,0 c 0,-15.421 -12.501,-27.922 -27.922,-27.922 -15.421,0 -27.923,12.501 -27.923,27.922 0,15.421 12.502,27.922 27.923,27.922 C -12.501,27.922 0,15.421 0,0" />
            </g>
          </g>
        </g>
      </g>
      <g
         style="fill:#ffffff"
         transform="matrix(4.7311992,0,0,-4.7311992,908.9001,4641.0447)"
         id="g5367">
        <path
           inkscape:connector-curvature="0"
           id="path5369"
           style="fill:#ffffff;fill-opacity:1;fill-rule:nonzero;stroke:none"
           d="m 0,0 0,-21.118 25.863,0 0,21.115 L 12.932,11.31 0,0 Z" />
      </g>
      <g
         transform="matrix(4.7311992,0,0,-4.7311992,625.25177,5071.1996)"
         id="g5371"
         style="fill:#b30900;fill-opacity:0.68627451">
        <g
           id="g5373"
           style="fill:#b30900;fill-opacity:0.68627451" />
        <g
           id="g5375"
           style="fill:#b30900;fill-opacity:0.68627451">
          <g
             clip-path="url(#clipPath7055-5-4)"
             id="g5377"
             style="opacity:0.75;fill:#b30900;fill-opacity:0.68627451">
            <g
               transform="translate(100.8066,86.0148)"
               id="g5379"
               style="fill:#b30900;fill-opacity:0.68627451">
              <path
                 d="m 0,0 c 0,-15.421 -12.501,-27.922 -27.922,-27.922 -15.421,0 -27.923,12.501 -27.923,27.922 0,15.421 12.502,27.922 27.923,27.922 C -12.501,27.922 0,15.421 0,0"
                 style="fill:#b30900;fill-opacity:0.68627451;fill-rule:nonzero;stroke:none"
                 id="path5381"
                 inkscape:connector-curvature="0" />
            </g>
          </g>
        </g>
      </g>
      <g
         transform="matrix(4.7311992,0,0,-4.7311992,625.25177,5071.1996)"
         id="g5383"
         style="fill:#ffba2a;fill-opacity:0.68627451">
        <g
           id="g5385"
           style="fill:#ffba2a;fill-opacity:0.68627451" />
        <g
           id="g5387"
           style="fill:#ffba2a;fill-opacity:0.68627451">
          <g
             clip-path="url(#clipPath7039-0-8)"
             id="g5389"
             style="opacity:0.69999701;fill:#ffba2a;fill-opacity:0.68627451">
            <g
               transform="translate(79.4075,85.617)"
               id="g5391"
               style="fill:#ffba2a;fill-opacity:0.68627451">
              <path
                 d="m 0,0 c 0,-15.421 -12.501,-27.922 -27.922,-27.922 -15.421,0 -27.923,12.501 -27.923,27.922 0,15.421 12.502,27.922 27.923,27.922 C -12.501,27.922 0,15.421 0,0"
                 style="fill:#ffba2a;fill-opacity:0.68627451;fill-rule:nonzero;stroke:none"
                 id="path5393"
                 inkscape:connector-curvature="0" />
            </g>
          </g>
        </g>
      </g>
      <g
         transform="matrix(4.7311992,0,0,-4.7311992,625.25177,5071.1996)"
         id="g5395"
         style="fill:#ff8e2a;fill-opacity:0.68627451">
        <g
           id="g5397"
           style="fill:#ff8e2a;fill-opacity:0.68627451" />
        <g
           id="g5399"
           style="fill:#ff8e2a;fill-opacity:0.68627451">
          <g
             clip-path="url(#clipPath7071-8-4)"
             id="g5401"
             style="opacity:0.75;fill:#ff8e2a;fill-opacity:0.68627451">
            <g
               transform="translate(122.2057,85.4503)"
               id="g5403"
               style="fill:#ff8e2a;fill-opacity:0.68627451">
              <path
                 d="m 0,0 c 0,-15.421 -12.501,-27.922 -27.922,-27.922 -15.421,0 -27.923,12.501 -27.923,27.922 0,15.421 12.502,27.922 27.923,27.922 C -12.501,27.922 0,15.421 0,0"
                 style="fill:#ff8e2a;fill-opacity:0.68627451;fill-rule:nonzero;stroke:none"
                 id="path5405"
                 inkscape:connector-curvature="0" />
            </g>
          </g>
        </g>
      </g>
      <g
         id="g5407"
         transform="matrix(5.2373503,0,0,-5.2373503,902.35481,4640.5625)"
         style="fill:#ffffff">
        <path
           d="m 0,0 0,-21.118 25.863,0 0,21.115 L 12.932,11.31 0,0 Z"
           style="fill:#ffffff;fill-opacity:1;fill-rule:nonzero;stroke:none"
           id="path5409"
           inkscape:connector-curvature="0" />
      </g>
    </g>
  </g>
</svg>
