<?xml version="1.0" standalone="no"?>
<!DOCTYPE svg PUBLIC "-//W3C//DTD SVG 20010904//EN"
 "http://www.w3.org/TR/2001/REC-SVG-20010904/DTD/svg10.dtd">
<svg version="1.0" xmlns="http://www.w3.org/2000/svg"
 width="300.000000pt" height="300.000000pt" viewBox="0 0 300.000000 300.000000"
 preserveAspectRatio="xMidYMid meet">
<metadata>
Created by potrace 1.11, written by Peter Selinger 2001-2013
</metadata>
<g transform="translate(0.000000,300.000000) scale(0.100000,-0.100000)"
fill="#000000" stroke="none">
<path d="M703 2585 c-200 -36 -378 -139 -506 -291 -65 -76 -148 -234 -173
-329 -25 -93 -30 -285 -9 -386 42 -207 179 -418 346 -531 223 -151 504 -194
744 -113 l70 23 71 -24 c148 -49 344 -51 498 -4 l66 21 78 -25 c168 -53 324
-56 485 -12 156 44 250 98 365 210 170 165 254 359 256 596 1 240 -86 452
-256 617 -217 211 -541 291 -825 205 l-58 -18 -80 28 c-165 57 -361 59 -530 7
l-68 -21 -71 21 c-145 42 -270 50 -403 26z m1016 -500 l211 -186 0 -354 0
-355 -430 0 -430 0 0 355 0 354 211 186 c117 102 215 185 219 185 4 0 102 -83
219 -185z"/>
<path d="M1461 667 c-54 -19 -76 -57 -76 -130 1 -72 21 -110 67 -126 97 -34
168 22 168 131 0 51 -16 85 -50 109 -35 24 -70 29 -109 16z m80 -63 c7 -9 13
-38 13 -66 0 -74 -42 -104 -91 -65 -16 11 -17 101 -3 128 13 23 62 26 81 3z"/>
<path d="M63 660 c-52 -21 -80 -124 -53 -194 17 -44 66 -68 132 -63 31 3 61 8
67 12 6 3 11 37 11 76 l0 69 -55 0 c-54 0 -55 0 -55 -30 0 -25 4 -30 25 -30
18 0 25 -5 25 -19 0 -24 -23 -33 -54 -21 -49 18 -61 88 -24 135 19 25 26 27
69 22 41 -5 49 -3 54 13 4 11 3 24 0 30 -8 12 -112 12 -142 0z"/>
<path d="M270 535 l0 -136 78 3 c76 3 77 3 80 31 3 26 2 27 -47 27 -50 0 -51
1 -51 30 0 29 2 30 45 30 41 0 45 2 45 25 0 23 -4 25 -45 25 -41 0 -45 2 -45
25 0 23 3 25 50 25 47 0 50 2 50 25 0 25 -1 25 -80 25 l-80 0 0 -135z"/>
<path d="M450 645 c0 -21 5 -25 30 -25 l29 0 3 -107 3 -108 30 0 30 0 3 108 3
107 29 0 c25 0 30 4 30 25 0 25 0 25 -95 25 -95 0 -95 0 -95 -25z"/>
<path d="M750 651 c0 -10 7 -21 15 -25 12 -4 15 -24 15 -90 0 -65 -3 -85 -15
-90 -8 -3 -15 -15 -15 -26 0 -18 6 -20 60 -20 57 0 60 1 60 25 0 16 -6 25 -15
25 -12 0 -15 16 -15 85 0 67 3 87 15 91 8 4 15 15 15 25 0 17 -8 19 -60 19
-52 0 -60 -2 -60 -19z"/>
<path d="M880 645 c0 -22 4 -25 35 -25 l35 0 0 -110 0 -110 30 0 30 0 0 110 0
110 35 0 c31 0 35 3 35 25 l0 25 -100 0 -100 0 0 -25z"/>
<path d="M1180 645 c0 -21 5 -25 30 -25 l29 0 3 -107 3 -108 30 0 30 0 3 108
3 107 29 0 c25 0 30 4 30 25 0 25 0 25 -95 25 -95 0 -95 0 -95 -25z"/>
<path d="M1694 636 c-30 -30 -34 -40 -34 -89 0 -73 12 -102 52 -128 27 -16 44
-19 92 -15 32 2 63 9 68 14 5 5 8 38 6 73 l-3 64 -52 3 -53 3 0 -30 c0 -25 4
-31 21 -31 15 0 20 -5 17 -22 -8 -58 -88 -7 -88 55 0 20 9 46 22 62 19 25 26
27 69 22 41 -5 49 -3 54 13 10 33 -3 40 -72 40 -61 0 -67 -2 -99 -34z"/>
<path d="M1930 535 l0 -136 78 3 c76 3 77 3 80 31 3 26 2 27 -47 27 -50 0 -51
1 -51 30 0 29 2 30 45 30 41 0 45 2 45 25 0 23 -4 25 -45 25 -41 0 -45 2 -45
25 0 23 3 25 50 25 47 0 50 2 50 25 0 25 -1 25 -80 25 l-80 0 0 -135z"/>
<path d="M2110 645 c0 -21 5 -25 30 -25 l29 0 3 -107 3 -108 30 0 30 0 3 108
3 107 29 0 c25 0 30 4 30 25 0 25 0 25 -95 25 -95 0 -95 0 -95 -25z"/>
<path d="M2332 538 l3 -133 30 0 c30 0 30 1 33 58 l3 57 39 0 40 0 0 -61 c0
-60 0 -60 28 -57 l27 3 3 133 3 132 -31 0 c-29 0 -30 -1 -30 -50 l0 -50 -40 0
-40 0 0 50 0 50 -35 0 -36 0 3 -132z"/>
<path d="M2600 535 l0 -135 75 0 75 0 0 30 c0 29 -2 30 -45 30 -43 0 -45 1
-45 30 0 29 2 30 45 30 41 0 45 2 45 25 0 23 -4 25 -45 25 -41 0 -45 2 -45 25
0 23 4 25 45 25 41 0 45 2 45 25 0 24 -2 25 -75 25 l-75 0 0 -135z"/>
<path d="M2800 535 l0 -135 30 0 c29 0 30 1 30 50 0 64 17 65 50 2 21 -39 30
-47 58 -50 17 -2 32 0 32 4 0 4 -14 30 -31 57 -25 40 -29 54 -20 67 24 33 30
59 20 88 -13 37 -46 52 -114 52 l-55 0 0 -135z m98 76 c21 -13 10 -46 -16 -49
-19 -3 -22 1 -22 27 0 31 13 39 38 22z"/>
</g>
</svg>
