<?xml version="1.0" encoding="UTF-8" standalone="no"?>
<!-- Created with Inkscape (http://www.inkscape.org/) -->
<svg xmlns:rdf="http://www.w3.org/1999/02/22-rdf-syntax-ns#" xmlns="http://www.w3.org/2000/svg" height="123.5" width="128" version="1.1" xmlns:cc="http://creativecommons.org/ns#" xmlns:dc="http://purl.org/dc/elements/1.1/" viewBox="0 0 128 123.4999">
 <metadata>
  <rdf:RDF>
   <cc:Work rdf:about="">
    <dc:format>image/svg+xml</dc:format>
    <dc:type rdf:resource="http://purl.org/dc/dcmitype/StillImage"/>
    <dc:title/>
   </cc:Work>
  </rdf:RDF>
 </metadata>
 <g transform="translate(72.571 -1467.8)">
  <path id="email" d="m-72.571 1553.3v-37.972l31.767-23.778c17.472-13.078 31.977-23.778 32.233-23.778s14.762 10.7 32.233 23.778l31.766 23.778v37.972 37.972h-64-64v-37.972zm120 34.25c0-0.3881-55.498-43.279-56-43.279-0.5018 0-56 42.891-56 43.279 0 0.1223 25.2 0.2211 56 0.2211s56-0.1 56-0.2211zm-91.789-20.693c12.629-9.819 23.034-18.074 23.123-18.344 0.128-0.3891-44.777-31.023-46.406-31.658-0.2355-0.092-0.425 15.152-0.425 33.875s0.169 34.028 0.3738 34.011c0.2048-0.02 10.708-8.0648 23.336-17.884zm95.289-16.127c0-18.894-0.1894-33.968-0.43-33.875-1.5878 0.6132-46.525 31.264-46.402 31.65 0.1741 0.544 45.874 36.188 46.458 36.236 0.2048 0.01 0.3737-15.288 0.3737-34.011zm-48.75-20.1c3.7386-1.3996 6.83-3.569 8.4812-5.9516 0.6979-1.0067 1.2683-1.987 1.2683-2.1784 0-0.1915-0.9129-0.3482-2.0291-0.3482-1.4981 0-2.5124 0.3866-3.8748 1.4773-3.4314 2.746-6.3488 3.7018-11.997 3.93-7.6452 0.3082-11.748-1.0372-15.471-5.0767-6.8152-7.3935-3.4473-21.638 6.1225-25.895 3.3516-1.4911 9.5826-1.8478 13.296-0.7614 3.2702 0.9569 6.102 3.1989 7.5776 5.9991 1.6046 3.0452 1.4879 7.7221-0.2816 11.171-1.9522 3.809-6.3442 6.7682-6.3442 4.2744 0-0.7296 2.2866-11.985 3.2492-15.993 0.256-1.0703 0.128-1.125-2.686-1.125-2.1693 0-3.0325 0.1996-3.2445 0.7518-0.2458 0.6438-0.5233 0.608-1.9282-0.2478-3.4714-2.1163-8.9503-0.7156-11.933 3.0502-4.7007 5.9352-4.5455 14.956 0.3072 17.956 2.2564 1.3944 6.144 1.4374 8.4224 0.093 1.6492-0.9731 1.6998-0.9741 2.4929-0.046 0.8167 0.9541 1.6297 1.1164 4.819 0.9617 3.9598-0.192 8.4014-3.5577 10.909-8.2665 1.1576-2.1732 1.3317-3.088 1.3337-7 0-5.1593-0.9236-7.7865-3.9096-11.092-6.3898-7.073-21.131-7.2385-28.822-0.3236-6.206 5.58-8.6835 15.233-5.9735 23.276 2.2379 6.6435 6.6882 10.472 14.157 12.178 4.4446 1.0152 12.228 0.6221 16.055-0.8108zm-15.86-12.51c-1.9282-1.1237-2.1202-7.1487-0.3379-10.607 2.1079-4.0906 6.2643-5.0072 7.9995-1.7644 1.4602 2.7278-0.2918 9.8405-2.9389 11.921-1.3481 1.0608-3.3485 1.2513-4.7232 0.4496z" style="fill:#ffffff"/>
 </g>
</svg>
