<?xml version="1.0" encoding="UTF-8" standalone="no"?>
<!-- Created with Inkscape (http://www.inkscape.org/) -->
<svg xmlns:rdf="http://www.w3.org/1999/02/22-rdf-syntax-ns#" xmlns="http://www.w3.org/2000/svg" height="128" width="123.36" version="1.1" xmlns:cc="http://creativecommons.org/ns#" xmlns:dc="http://purl.org/dc/elements/1.1/" viewBox="0 0 123.36291 127.99997">
 <metadata>
  <rdf:RDF>
   <cc:Work rdf:about="">
    <dc:format>image/svg+xml</dc:format>
    <dc:type rdf:resource="http://purl.org/dc/dcmitype/StillImage"/>
    <dc:title/>
   </cc:Work>
  </rdf:RDF>
 </metadata>
 <g transform="translate(948.54 -138.08)">
  <path id="googleplus" d="m-825.18 193.06h-15.436v-15.436h-12.418v15.436h-15.429v12.418h15.429v15.436h12.418v-15.436h15.436v-12.418zm-57.681 18.695c-3.5824-2.5364-10.431-8.7079-10.431-12.336 0-4.2524 1.2193-6.3371 7.6094-11.335 6.5551-5.1329 11.199-12.336 11.199-20.705 0-9.9723-4.4406-19.689-12.78-22.902h12.569l8.8732-6.4049h-39.648c-17.769 0-34.492 13.465-34.492 29.051 0 15.941 12.117 28.811 30.195 28.811 1.2565 0 2.4758-0.0301 3.6728-0.1126-1.1741 2.2428-2.0171 4.7792-2.0171 7.3983 0 4.433 2.3856 8.023 5.3961 10.958-2.273 0-4.4779 0.068-6.864 0.068-22.014 0-38.963 14.014-38.963 28.555 0 14.315 18.575 23.271 40.589 23.271 25.093 0 38.956-14.232 38.956-28.555 0-11.485-3.3868-18.357-13.863-25.762m-21.171-19.869c-10.214-0.30104-19.922-11.425-21.684-24.829-1.7684-13.419 5.0877-23.678 15.301-23.377 10.206 0.30827 19.914 11.064 21.676 24.475 1.7611 13.412-5.0805 24.039-15.293 23.73m-4.004 67.857c-15.218 0-26.206-9.6261-26.206-21.202 0-11.342 13.638-20.78 28.848-20.614 3.5525 0.0361 6.864 0.60962 9.8673 1.5805 8.256 5.7501 14.18 8.9864 15.85 15.534 0.3191 1.3322 0.4878 2.6944 0.4878 4.0868 0 11.575-7.451 20.614-28.849 20.614" style="fill:#ffffff"/>
 </g>
</svg>
