<?xml version="1.0" encoding="UTF-8" standalone="no"?>
<!-- Created with Inkscape (http://www.inkscape.org/) -->
<svg xmlns:rdf="http://www.w3.org/1999/02/22-rdf-syntax-ns#" xmlns="http://www.w3.org/2000/svg" height="128" width="128" version="1.1" xmlns:cc="http://creativecommons.org/ns#" xmlns:dc="http://purl.org/dc/elements/1.1/" viewBox="0 0 128 128.00001">
 <metadata>
  <rdf:RDF>
   <cc:Work rdf:about="">
    <dc:format>image/svg+xml</dc:format>
    <dc:type rdf:resource="http://purl.org/dc/dcmitype/StillImage"/>
    <dc:title/>
   </cc:Work>
  </rdf:RDF>
 </metadata>
 <g transform="translate(155.99 -113.41)">
  <path id="instagram" d="m-40.462 216.68c0 6.7658-5.5017 12.267-12.267 12.267h-78.525c-6.766 0-12.267-5.5014-12.267-12.267v-52.403h19.108c-1.6479 4.064-2.5739 8.4967-2.5739 13.14 0 19.296 15.699 35.003 34.995 35.003s34.995-15.706 34.995-35.003c0-4.6435-0.9332-9.0762-2.5739-13.14h19.109v52.403zm-69.795-52.403c4.0941-5.6745 10.747-9.3923 18.265-9.3923 7.5186 0 14.172 3.7178 18.266 9.3923 2.6714 3.7027 4.2669 8.2333 4.2669 13.14 0 12.418-10.115 22.525-22.533 22.525s-22.525-10.107-22.525-22.525c0-4.9069 1.5955-9.4374 4.2596-13.14zm64.624-36.109 2.8297-0.006v21.697l-21.629 0.068-0.072-21.697 18.875-0.0602zm-7.0966-14.751h-78.525c-13.637 0-24.738 11.093-24.738 24.738v78.525c0 13.644 11.101 24.738 24.738 24.738h78.525c13.637 0 24.737-11.093 24.737-24.738v-78.525c0-13.644-11.1-24.738-24.737-24.738" style="fill:#ffffff"/>
 </g>
</svg>
