<?xml version="1.0" encoding="UTF-8" standalone="no"?>
<!-- Created with Inkscape (http://www.inkscape.org/) -->
<svg xmlns:rdf="http://www.w3.org/1999/02/22-rdf-syntax-ns#" xmlns="http://www.w3.org/2000/svg" height="128" width="128" version="1.1" xmlns:cc="http://creativecommons.org/ns#" xmlns:dc="http://purl.org/dc/elements/1.1/" viewBox="0 0 128 128.00031">
 <metadata>
  <rdf:RDF>
   <cc:Work rdf:about="">
    <dc:format>image/svg+xml</dc:format>
    <dc:type rdf:resource="http://purl.org/dc/dcmitype/StillImage"/>
    <dc:title/>
   </cc:Work>
  </rdf:RDF>
 </metadata>
 <g transform="translate(892.57 -174.08)">
  <path id="pintrest" d="m-828.57 174.08c-35.344 0-64.004 28.653-64.004 64.004 0 26.199 15.76 48.718 38.316 58.615-0.1806-4.4631-0.06-9.8369 1.1067-14.699 1.2343-5.1932 8.2338-34.869 8.2338-34.869s-2.0399-4.0868-2.0399-10.13c0-9.4832 5.502-16.565 12.343-16.565 5.8181 0 8.633 4.3728 8.633 9.6111 0 5.848-3.7331 14.601-5.6526 22.707-1.6028 6.7963 3.4019 12.328 10.1 12.328 12.125 0 20.291-15.572 20.291-34.027 0-14.022-9.4452-24.521-26.628-24.521-19.41 0-31.505 14.473-31.505 30.64 0 5.5845 1.6408 9.5133 4.2148 12.554 1.1891 1.4074 1.3475 1.9644 0.9182 3.575-0.3011 1.1666-1.0085 4.0115-1.3018 5.133-0.4275 1.6182-1.7388 2.2052-3.1989 1.6031-8.9486-3.6503-13.111-13.442-13.111-24.453 0-18.176 15.331-39.987 45.738-39.987 24.438 0 40.522 17.694 40.522 36.668 0 25.108-13.954 43.863-34.539 43.863-6.9013 0-13.404-3.7331-15.632-7.9704 0 0-3.718 14.744-4.5007 17.589-1.3547 4.9298-4.0118 9.867-6.4425 13.705 5.7573 1.701 11.839 2.6267 18.138 2.6267 35.344 0 63.996-28.653 63.996-63.996 0-35.351-28.652-64.004-63.996-64.004" style="fill:#ffffff"/>
 </g>
</svg>
