<?xml version="1.0" encoding="UTF-8" standalone="no"?>
<svg
   xmlns:dc="http://purl.org/dc/elements/1.1/"
   xmlns:cc="http://creativecommons.org/ns#"
   xmlns:rdf="http://www.w3.org/1999/02/22-rdf-syntax-ns#"
   xmlns:svg="http://www.w3.org/2000/svg"
   xmlns="http://www.w3.org/2000/svg"
   style="enable-background:new"
   version="1.1"
   id="svg5478"
   viewBox="0 0 230.0001 131.52623"
   height="131.52623"
   width="230.00011">
  <defs
     id="defs5480">
    <clipPath
       clipPathUnits="userSpaceOnUse"
       id="clipPath7039-0-8">
      <path
         d="m 23.5628,113.539 55.8447,0 0,-55.8444 -55.8447,0 0,55.8444 z"
         id="path7041-6-2" />
    </clipPath>
    <clipPath
       clipPathUnits="userSpaceOnUse"
       id="clipPath7071-8-4">
      <path
         d="m 66.361,113.373 55.845,0 0,-55.845 -55.845,0 0,55.845 z"
         id="path7073-3-3" />
    </clipPath>
    <clipPath
       clipPathUnits="userSpaceOnUse"
       id="clipPath7055-5-4">
      <path
         d="m 44.9619,113.937 55.8451,0 0,-55.8445 -55.8451,0 0,55.8445 z"
         id="path7057-6-0" />
    </clipPath>
    <clipPath
       clipPathUnits="userSpaceOnUse"
       id="clipPath5425">
      <path
         d="m 44.9619,113.937 55.8451,0 0,-55.8445 -55.8451,0 0,55.8445 z"
         id="path5427" />
    </clipPath>
    <clipPath
       clipPathUnits="userSpaceOnUse"
       id="clipPath5429">
      <path
         d="m 23.5628,113.539 55.8447,0 0,-55.8444 -55.8447,0 0,55.8444 z"
         id="path5431" />
    </clipPath>
    <clipPath
       clipPathUnits="userSpaceOnUse"
       id="clipPath5433">
      <path
         d="m 66.361,113.373 55.845,0 0,-55.845 -55.845,0 0,55.845 z"
         id="path5435" />
    </clipPath>
    <clipPath
       clipPathUnits="userSpaceOnUse"
       id="clipPath7055-5-4-0">
      <path
         d="m 44.9619,113.937 55.8451,0 0,-55.8445 -55.8451,0 0,55.8445 z"
         id="path7057-6-0-9" />
    </clipPath>
  </defs>
  <metadata
     id="metadata5483">
    <rdf:RDF>
      <cc:Work
         rdf:about="">
        <dc:format>image/svg+xml</dc:format>
        <dc:type
           rdf:resource="http://purl.org/dc/dcmitype/StillImage" />
        <dc:title></dc:title>
      </cc:Work>
    </rdf:RDF>
  </metadata>
  <g
     transform="translate(-209.64281,-323.41627)"
     id="layer1">
    <path
       style="color:#000000;clip-rule:nonzero;display:inline;overflow:visible;visibility:visible;opacity:1;isolation:auto;mix-blend-mode:normal;color-interpolation:sRGB;color-interpolation-filters:linearRGB;solid-color:#000000;solid-opacity:1;fill:#ffe330;fill-opacity:1;fill-rule:nonzero;stroke:none;stroke-width:4;stroke-linecap:butt;stroke-linejoin:miter;stroke-miterlimit:4;stroke-dasharray:none;stroke-dashoffset:0;stroke-opacity:1;color-rendering:auto;image-rendering:auto;shape-rendering:auto;text-rendering:auto;enable-background:accumulate"
       id="path4195"
       d="m 439.64291,389.83749 a 65.105003,65.105003 0 0 1 -65.09876,65.10501 65.105003,65.105003 0 0 1 -65.11125,-65.09251 65.105003,65.105003 0 0 1 65.08625,-65.1175 65.105003,65.105003 0 0 1 65.12375,65.08" />
    <path
       d="m 339.85281,388.52127 a 65.105003,65.105003 0 0 1 -65.09876,65.105 65.105003,65.105003 0 0 1 -65.11125,-65.0925 65.105003,65.105003 0 0 1 65.08625,-65.1175 65.105003,65.105003 0 0 1 65.12375,65.08"
       id="path4180"
       style="color:#000000;clip-rule:nonzero;display:inline;overflow:visible;visibility:visible;opacity:1;isolation:auto;mix-blend-mode:normal;color-interpolation:sRGB;color-interpolation-filters:linearRGB;solid-color:#000000;solid-opacity:1;fill:#ff1d24;fill-opacity:1;fill-rule:nonzero;stroke:none;stroke-width:4;stroke-linecap:butt;stroke-linejoin:miter;stroke-miterlimit:4;stroke-dasharray:none;stroke-dashoffset:0;stroke-opacity:1;color-rendering:auto;image-rendering:auto;shape-rendering:auto;text-rendering:auto;enable-background:accumulate" />
    <path
       style="color:#000000;clip-rule:nonzero;display:inline;overflow:visible;visibility:visible;opacity:1;isolation:auto;mix-blend-mode:normal;color-interpolation:sRGB;color-interpolation-filters:linearRGB;solid-color:#000000;solid-opacity:1;fill:#1f69a8;fill-opacity:0.78431373;fill-rule:nonzero;stroke:none;stroke-width:4;stroke-linecap:butt;stroke-linejoin:miter;stroke-miterlimit:4;stroke-dasharray:none;stroke-dashoffset:0;stroke-opacity:1;color-rendering:auto;image-rendering:auto;shape-rendering:auto;text-rendering:auto;enable-background:accumulate"
       id="path4193"
       d="m 389.74786,388.52127 a 65.105003,65.105003 0 0 1 -65.09876,65.105 65.105003,65.105003 0 0 1 -65.11125,-65.0925 65.105003,65.105003 0 0 1 65.08625,-65.1175 65.105003,65.105003 0 0 1 65.12375,65.08" />
    <g
       id="g5407"
       transform="matrix(2.5810855,0,0,-2.5810853,291.26552,376.8493)"
       style="fill:#ffffff">
      <path
         d="m 0,0 0,-21.118 25.863,0 0,21.115 L 12.932,11.31 0,0 Z"
         style="fill:#ffffff;fill-opacity:1;fill-rule:nonzero;stroke:none"
         id="path5409" />
    </g>
  </g>
</svg>
