<?xml version="1.0" encoding="UTF-8" standalone="no"?>
<!-- Created with Inkscape (http://www.inkscape.org/) -->
<svg xmlns:inkscape="http://www.inkscape.org/namespaces/inkscape" xmlns:rdf="http://www.w3.org/1999/02/22-rdf-syntax-ns#" xmlns="http://www.w3.org/2000/svg" sodipodi:docname="napo-k.svg" height="40" width="40" version="1.1" xmlns:cc="http://creativecommons.org/ns#" xmlns:dc="http://purl.org/dc/elements/1.1/" inkscape:version="0.91 r" viewBox="0 0 40 40" xmlns:sodipodi="http://sodipodi.sourceforge.net/DTD/sodipodi-0.dtd">
 <sodipodi:namedview id="base" fit-margin-left="0" inkscape:zoom="20.741852" borderopacity="1.0" inkscape:current-layer="layer1" inkscape:cx="20" inkscape:cy="20.828313" inkscape:window-maximized="1" showgrid="false" fit-margin-right="0" units="px" inkscape:document-units="px" bordercolor="#666666" inkscape:window-x="65" inkscape:window-y="24" fit-margin-bottom="0" inkscape:window-width="1855" inkscape:pageopacity="0.0" inkscape:pageshadow="2" pagecolor="#ffffff" inkscape:window-height="1056" fit-margin-top="0"/>
 <metadata>
  <rdf:RDF>
   <cc:Work rdf:about="">
    <dc:format>image/svg+xml</dc:format>
    <dc:type rdf:resource="http://purl.org/dc/dcmitype/StillImage"/>
    <dc:title/>
   </cc:Work>
  </rdf:RDF>
 </metadata>
 <g inkscape:label="Layer 1" inkscape:groupmode="layer" transform="translate(16.429 -655.13)">
  <circle r="20" style="fill:#ffffff" cx="3.5714" cy="675.13"/>
  <g transform="translate(1.1007e-7 2.8196)">
   <ellipse style="fill:#ffffff" rx="18.031" ry="9.3" cy="672.33" cx="3.6275"/>
   <path d="m-6.1598 689.67c-0.23138-0.11559-0.2774-0.28616-0.1165-0.43178 0.11042-0.0999 0.11828-0.0981 0.31354 0.0734 0.33873 0.29741 0.59617 0.21657 0.72841-0.22873 0.13093-0.4409 0.11197-0.47482-0.13878-0.24828-0.17873 0.16147-0.27074 0.20325-0.44764 0.20325-0.27421 0-0.33903-0.0993-0.33903-0.5192 0-0.3793 0.22117-0.85113 0.46986-1.0024 0.13883-0.0844 0.28216-0.10497 0.72163-0.10341 0.30161 0.001 0.56018 0.021 0.57458 0.0443 0.014406 0.0233-0.00724 0.1672-0.0481 0.31974-0.040866 0.15255-0.11692 0.51541-0.16901 0.80636-0.11976 0.66886-0.24784 0.92509-0.53583 1.072-0.27939 0.14253-0.74377 0.14928-1.0131 0.0147zm0.98293-1.4388 0.22515-0.32756-0.13254-0.10733c-0.072897-0.059-0.1671-0.10733-0.20933-0.10733-0.10697 0-0.24951 0.23464-0.3123 0.51411-0.11175 0.49735 0.097096 0.51103 0.42902 0.0281zm9.9974 1.4563c-0.09675-0.0421-0.19322-0.10457-0.21439-0.13881-0.058253-0.0943 0.018695-0.27874 0.1443-0.34596 0.092033-0.0493 0.13106-0.0352 0.22169 0.0801 0.14582 0.18537 0.40904 0.24169 0.58642 0.12547 0.12615-0.0826 0.18177-0.21952 0.27616-0.67955l0.034594-0.16861-0.11949 0.14051c-0.29523 0.34717-0.69859 0.44645-0.86259 0.21231-0.20068-0.28652-0.063446-0.90496 0.28046-1.2639l0.23053-0.24059 0.52975 0.004c0.66071 0.005 0.74459 0.0252 0.67192 0.16094-0.029949 0.056-0.10728 0.40202-0.17185 0.76901-0.19648 1.1168-0.4344 1.428-1.0886 1.4238-0.18862-0.001-0.42212-0.0367-0.51887-0.0788zm0.83188-1.2539c0.078684-0.085 0.1901-0.23686 0.24758-0.33745 0.10306-0.18034 0.10287-0.18454-0.013543-0.30095-0.16364-0.16364-0.32482-0.0977-0.43513 0.17798-0.11035 0.2758-0.11905 0.61497-0.015768 0.61497 0.040583 0 0.13817-0.0695 0.21686-0.15455zm14.292 1.2752c-0.02026-0.0328-0.0061-0.13368 0.03136-0.22422 0.05651-0.13643 0.09167-0.15875 0.20523-0.13025 0.09684 0.0243 0.1752-0.001 0.26713-0.0878 0.12862-0.12083 0.1292-0.12711 0.05135-0.55485-0.04331-0.23795-0.12792-0.59703-0.18804-0.79796-0.10164-0.3397-0.10274-0.37024-0.01562-0.43557 0.12266-0.092 0.37933-0.0899 0.45701 0.004 0.03375 0.0407 0.08825 0.31125 0.1211 0.60131 0.03286 0.29005 0.06866 0.53629 0.07956 0.54719 0.05287 0.0529 0.4455-0.76565 0.46953-0.97883 0.02903-0.25753 0.0714-0.28267 0.3183-0.1888 0.26427 0.10048 0.16222 0.39008-0.44608 1.266-0.47329 0.68147-0.85861 1.0398-1.1182 1.0398-0.10769 0-0.21237-0.0268-0.23263-0.0596zm-31.647-0.36995c-0.06571-0.0143-0.17838-0.0888-0.25037-0.1654-0.30283-0.32234-0.05621-1.1982 0.44505-1.5805 0.20454-0.156 0.28988-0.18507 0.54338-0.18507 0.19846 0 0.33077 0.03 0.38905 0.0883 0.11967 0.11967 0.11094 0.40783-0.01881 0.62059-0.11681 0.19157-0.51917 0.41514-0.7471 0.41514-0.17196 0-0.23168 0.15267-0.13557 0.34652 0.08715 0.17576 0.32653 0.19698 0.57414 0.0509 0.24297-0.14336 0.30325-0.14588 0.30325-0.0127 0 0.10885-0.11717 0.23426-0.31344 0.33548-0.13775 0.071-0.61912 0.12391-0.78957 0.0867zm0.59719-1.2003c0.15383-0.15383 0.15329-0.44962-0.000809-0.44962-0.12161 0-0.33582 0.29545-0.33618 0.46367-0.000449 0.1349 0.19626 0.1267 0.337-0.014zm1.8765 1.1583c-0.42649-0.30883-0.27125-1.3756 0.29069-1.9977 0.26656-0.29505 0.46105-0.39708 0.75689-0.39708 0.1814 0 0.26771 0.0358 0.39621 0.16428 0.15007 0.15007 0.16428 0.1981 0.16428 0.55496 0 0.21487-0.038627 0.50134-0.085846 0.6366-0.11856 0.33965-0.43395 0.78137-0.67318 0.94283-0.25051 0.16907-0.68098 0.21778-0.84906 0.0961zm0.74507-0.41645c0.22488-0.33369 0.39086-1.4122 0.25124-1.6326-0.068423-0.10797-0.23008-0.0602-0.35119 0.10389-0.13029 0.17647-0.32969 0.94896-0.32969 1.2772 0 0.48056 0.19739 0.59608 0.42965 0.25143zm4.2589 0.35483c-0.14022-0.14022-0.1487-0.17626-0.12355-0.52525 0.03226-0.44757 0.22494-0.86565 0.51723-1.1223 0.19453-0.1708 0.2139-0.17534 0.73429-0.17216 0.29397 0.002 0.54718 0.0238 0.5627 0.0489 0.015521 0.0251-0.024913 0.26924-0.089848 0.54253-0.079583 0.33493-0.11111 0.62011-0.096749 0.87495 0.023097 0.40972 0.00483 0.43687-0.29395 0.43687-0.1811 0-0.2784-0.12829-0.2784-0.36706 0-0.14521-0.00707-0.14203-0.23886 0.10738-0.30848 0.33193-0.49072 0.37825-0.69287 0.17609zm0.90823-0.94421 0.20847-0.39671-0.12681-0.10269c-0.15748-0.12751-0.18673-0.12766-0.30087-0.002-0.14184 0.15673-0.2631 0.55825-0.2631 0.87116v0.28375l0.13693-0.12864c0.075307-0.0708 0.23073-0.30715 0.34539-0.52534zm3.5643 0.95385c-0.000009-0.15318 0.091408-0.29782 0.54338-0.85976 0.22663-0.28177 0.41205-0.52838 0.41205-0.54803 0-0.0197-0.12496-0.0357-0.27769-0.0357-0.30064 0-0.36812-0.051-0.32019-0.24206 0.029594-0.11797 0.058743-0.12326 0.6796-0.12326 0.61167 0 0.6486 0.006 0.6473 0.11241-0.0007643 0.0618-0.22833 0.38581-0.5057 0.71998-0.27738 0.33417-0.50432 0.63018-0.50432 0.65781 0 0.0276 0.17072 0.0577 0.37937 0.0669 0.3789 0.0166 0.37937 0.0168 0.37937 0.18247v0.16586l-0.71657 0.003c-0.65588 0.003-0.71657-0.006-0.71658-0.0993zm9.3617 0.0418c-0.11776-0.11775-0.11136-0.34509 0.029104-1.0338 0.064584-0.31665 0.10531-0.62203 0.090518-0.67862-0.046504-0.17782 0.43804-0.24969 0.50511-0.0749 0.0193 0.0503-0.0194 0.38332-0.086 0.74007-0.0666 0.35674-0.11033 0.65938-0.09719 0.67252 0.0396 0.0396 0.3591-0.43168 0.51256-0.75607 0.07904-0.16707 0.15197-0.39739 0.16208-0.51181 0.01767-0.20008 0.02727-0.20871 0.25049-0.22536 0.30564-0.0228 0.33242 0.0576 0.2 0.60027-0.05753 0.23578-0.10579 0.61837-0.10723 0.85021l-0.0027 0.42152-0.1861 0.0179c-0.25136 0.0242-0.34736-0.0704-0.34736-0.34231v-0.22636l-0.1675 0.23122c-0.16447 0.22705-0.42035 0.40387-0.58443 0.40387-0.045695 0-0.12282-0.0397-0.1714-0.0883zm2.0819-0.0288c-0.16156-0.12734-0.16209-0.12984-0.13058-0.60953 0.01741-0.26492 0.05022-0.5295 0.07293-0.58797 0.03735-0.0961 0.02162-0.10262-0.16448-0.0677-0.2198 0.0412-0.25156-0.00073-0.1476-0.195 0.03662-0.0684 0.11752-0.10871 0.21826-0.10871 0.18178 0 0.22736-0.0987 0.22862-0.49485l0.000764-0.24194 0.26696 0.0171c0.26468 0.017 0.26695 0.0188 0.26556 0.21384-0.000764 0.10819-0.01993 0.26509-0.04257 0.34867l-0.04116 0.15196 0.28143-0.0333c0.30105-0.0357 0.33287-0.004 0.19394 0.19463-0.06514 0.093-0.14384 0.12491-0.30804 0.12491-0.19339 0-0.2253 0.0189-0.2591 0.15358-0.0212 0.0845-0.04065 0.30576-0.04322 0.49177-0.005 0.36468 0.01792 0.38325 0.34659 0.28036 0.10881-0.0341 0.12646-0.0192 0.12646 0.10618 0 0.17737-0.19035 0.31557-0.48963 0.35548-0.16492 0.022-0.24946-0.00045-0.37512-0.0995zm3.3536 0.0778c-0.06849-0.0133-0.18863-0.10027-0.26696-0.19337-0.26894-0.31962-0.16322-1.0294 0.21518-1.4446 0.18334-0.20117 0.39649-0.28985 0.6934-0.28847 0.41335 0.002 0.63507 0.23272 0.63507 0.6611 0 0.47474-0.3061 1.0004-0.69105 1.1868-0.23797 0.1152-0.33149 0.12774-0.58564 0.0785zm0.56812-0.54374c0.0585-0.11982 0.1184-0.38611 0.13312-0.59177 0.02186-0.30551 0.0092-0.38846-0.06892-0.45333-0.19488-0.16174-0.3864 0.0996-0.49296 0.67258-0.04687 0.25203-0.04584 0.37062 0.0042 0.48039 0.09786 0.21479 0.29101 0.16572 0.4246-0.10787zm3.5368 0.51895c-0.22104-0.11157-0.2645-0.32632-0.17526-0.8659l0.07998-0.48353-0.1862 0.0349c-0.14189 0.0266-0.1862 0.0154-0.1862-0.0473 0-0.18691 0.07135-0.26006 0.25365-0.26006 0.17886 0 0.18674-0.01 0.22253-0.26981 0.02041-0.1484 0.02911-0.30647 0.01932-0.35127-0.01368-0.0626 0.0471-0.0815 0.26323-0.0815 0.26311 0 0.28082 0.009 0.2779 0.14051-0.0017 0.0773-0.02176 0.23501-0.04456 0.35052l-0.04145 0.21001 0.25532-0.035c0.23224-0.0318 0.25532-0.0244 0.25532 0.0817 0 0.14513-0.07862 0.19545-0.36532 0.2338l-0.22481 0.0301-0.06458 0.39342c-0.07523 0.45828-0.02781 0.61731 0.16636 0.55784 0.06767-0.0207 0.1524-0.0611 0.18828-0.0897 0.08839-0.0705 0.15046 0.039 0.11074 0.19546-0.01722 0.0678-0.08172 0.1544-0.14334 0.19246-0.16301 0.10068-0.51928 0.1348-0.66092 0.0633zm-34.279-0.0694c-0.01633-0.0425 0.0083-0.22589 0.05467-0.40746 0.0464-0.18157 0.12532-0.55775 0.17538-0.83595 0.05007-0.27821 0.10493-0.55353 0.12192-0.61183 0.0261-0.0896 0.009-0.10051-0.11062-0.0705-0.07783 0.0195-0.18179 0.051-0.23102 0.0699-0.06957 0.0267-0.08953-0.003-0.08953-0.13338 0-0.0923 0.03162-0.19303 0.07025-0.22394 0.03864-0.0309 0.39272-0.0681 0.78684-0.0826 0.64595-0.0238 0.71658-0.017 0.71658 0.0687 0 0.15117-0.18822 0.28109-0.40724 0.28109-0.19515 0-0.20352 0.009-0.25854 0.26697-0.17186 0.8069-0.29565 1.5473-0.2699 1.6144 0.03589 0.0935-0.07847 0.14197-0.33524 0.14197-0.11273 0-0.2063-0.0324-0.22356-0.0774zm1.2135-0.0966c0-0.0957 0.07512-0.54459 0.16694-0.9976 0.09182-0.453 0.17401-0.89952 0.18266-0.99225 0.01439-0.15432 0.03536-0.17004 0.24746-0.18554 0.15762-0.0115 0.24126 0.008 0.2615 0.0606 0.0268 0.0699-0.01904 0.41541-0.10082 0.76005-0.02447 0.10314 0.0189 0.0776 0.21438-0.12646 0.25427-0.26536 0.49836-0.33646 0.64651-0.18832 0.09204 0.092 0.08466 0.46162-0.01906 0.95458-0.04758 0.22613-0.07919 0.51231-0.07025 0.63596l0.01625 0.22481h-0.25291c-0.248 0-0.25328-0.004-0.27166-0.19671-0.01031-0.10819 0.02602-0.4175 0.08075-0.68735 0.1552-0.76527 0.02855-0.73361-0.37708 0.0942-0.12037 0.24565-0.21885 0.53018-0.21885 0.63228 0 0.18254-0.0042 0.18563-0.25291 0.18563-0.24527 0-0.25291-0.005-0.25291-0.17395zm6.3158 0.0918c-0.017337-0.0452 0.02361-0.317 0.090999-0.60402 0.067385-0.28703 0.13927-0.67369 0.15974-0.85925 0.036653-0.33219 0.040088-0.33764 0.22356-0.35525 0.26319-0.0253 0.35776 0.071 0.31509 0.32073l-0.034679 0.20297 0.14707-0.20935c0.16154-0.22996 0.301-0.32457 0.47845-0.32457 0.09233 0 0.1161 0.0356 0.1161 0.17399 0 0.25013-0.16519 0.5091-0.29788 0.46699-0.065865-0.0209-0.15364 0.0122-0.23515 0.0888-0.17151 0.16112-0.43245 0.74928-0.43927 0.99011-0.0053 0.18695-0.010548 0.19098-0.24895 0.19098-0.1618 0-0.25412-0.0276-0.27506-0.0821zm5.187 0.0447c-0.064219-0.0642-0.042318-0.25089 0.10743-0.91562 0.079691-0.35377 0.13371-0.70173 0.12004-0.77325-0.027247-0.14254 0.11282-0.21038 0.36163-0.17516 0.10671 0.0151 0.13543 0.0575 0.14905 0.22003l0.016879 0.20132 0.21537-0.21537c0.16567-0.16567 0.2597-0.21537 0.40745-0.21537 0.36392 0 0.39095 0.12534 0.2119 0.98273-0.084407 0.40419-0.10056 0.59263-0.060631 0.70717 0.06113 0.17536 0.005036 0.22099-0.27164 0.22099-0.29091 0-0.31594-0.10265-0.19959-0.81872 0.057363-0.35304 0.089564-0.65662 0.071562-0.67462-0.044773-0.0448-0.46784 0.67724-0.57456 0.98053-0.047592 0.13526-0.086534 0.30598-0.086534 0.37937 0 0.11724-0.026145 0.13344-0.21544 0.13344-0.11849 0-0.23231-0.0169-0.25291-0.0375zm1.9255-0.0518c-0.06189-0.0746-0.052822-0.19752 0.054926-0.74468 0.070982-0.36046 0.13285-0.74389 0.1375-0.85208 0.008147-0.18976 0.016897-0.19732 0.24782-0.21402 0.1805-0.0131 0.24804 0.005 0.27459 0.0745 0.01937 0.0505-0.022279 0.35375-0.092546 0.67394-0.079043 0.36017-0.11687 0.67883-0.0992 0.83561 0.021334 0.18928 0.0079 0.26136-0.053069 0.28475-0.15683 0.0602-0.39648 0.0306-0.47002-0.058zm2.5734 0.0545c-0.072209-0.0722-0.042242-0.46268 0.076089-0.99147 0.063909-0.28561 0.10637-0.58786 0.094353-0.67168-0.024567-0.17137 0.038258-0.21292 0.32195-0.21292 0.1114 0 0.19875 0.033 0.21762 0.0821 0.017337 0.0452-0.031955 0.36393-0.10954 0.70833-0.077578 0.3444-0.13332 0.73106-0.12386 0.85925l0.017194 0.23307-0.22685 0.0167c-0.12477 0.009-0.2449-0.001-0.26696-0.0234zm0.8376-0.0526c-0.018452-0.0481 0.018632-0.31997 0.082411-0.60418s0.13307-0.66849 0.15399-0.85396l0.038033-0.33722 0.21909-0.0179c0.26211-0.0215 0.32626 0.0538 0.27886 0.32706l-0.034113 0.1967 0.17503-0.23766c0.18203-0.24716 0.33124-0.31786 0.60484-0.2866 0.14641 0.0167 0.16296 0.0407 0.17872 0.25916 0.00955 0.13239-0.024068 0.4439-0.074718 0.69223-0.05065 0.24834-0.08376 0.55732-0.073576 0.68663l0.018515 0.23511h-0.25291-0.25291l-0.017297-0.27113c-0.00952-0.14912 0.022099-0.46165 0.070253-0.6945 0.11113-0.53736 0.11004-0.56152-0.019932-0.44389-0.17681 0.16001-0.57694 1.0043-0.58337 1.2309-0.00579 0.20433-0.00854 0.20668-0.24162 0.20668-0.16146 0-0.24633-0.0276-0.26931-0.0874zm4.4348 0.0335c-0.018322-0.0296 0.23692-0.56033 0.56721-1.1793 0.56431-1.0575 0.61155-1.1275 0.78312-1.1596 0.3983-0.0747 0.38714-0.10086 0.42178 0.98843 0.018479 0.58097 0.059588 1.05 0.10054 1.1468 0.082416 0.19504 0.023344 0.25537-0.25137 0.25672-0.22963 0.001-0.28291-0.0733-0.33111-0.46281l-0.039994-0.32317h-0.2705-0.2705l-0.11838 0.32317c-0.065105 0.17774-0.12936 0.35478-0.14278 0.39342-0.02851 0.0821-0.39906 0.0956-0.44803 0.0163zm1.2773-1.4495c0.015899-0.23956 0.019559-0.44578 0.00813-0.45825-0.018749-0.0205-0.41567 0.80918-0.41567 0.86883 0 0.0138 0.085194 0.025 0.18932 0.025h0.18932l0.028906-0.43557zm4.109 1.419c-0.0178-0.0464 0.0096-0.25563 0.06089-0.46494 0.0513-0.20931 0.15084-0.69614 0.22122-1.0818l0.12795-0.70127 0.24291-0.0177 0.24291-0.0177-0.03558 0.35491c-0.01957 0.1952-0.05148 0.41131-0.07093 0.48023-0.02708 0.096 0.02353 0.0665 0.21642-0.12646 0.25525-0.25524 0.40381-0.30259 0.60747-0.19359 0.13764 0.0737 0.14328 0.35779 0.01803 0.90847-0.04987 0.21928-0.07824 0.50909-0.06303 0.64401 0.02474 0.21952 0.01419 0.24869-0.10031 0.27743-0.07038 0.0177-0.18744 0.0237-0.26013 0.0134-0.11192-0.0158-0.13484-0.0556-0.14954-0.25943-0.0096-0.13239 0.02415-0.44433 0.07491-0.69319s0.07536-0.46932 0.05469-0.48991c-0.10902-0.10858-0.65338 0.92108-0.66281 1.2537-0.0055 0.19547-0.009 0.19823-0.24915 0.19823-0.16471 0-0.25402-0.0273-0.27591-0.0844zm3.6664-0.006c-0.01911-0.0498 0.01801-0.30903 0.08248-0.57607 0.06447-0.26705 0.1343-0.64994 0.15518-0.85086l0.03797-0.36532 0.21909-0.0179c0.26313-0.0215 0.32991 0.0554 0.2839 0.32706l-0.03332 0.1967 0.14568-0.1967c0.18828-0.25424 0.30271-0.33722 0.46502-0.33722 0.18725 0 0.21013 0.12189 0.07866 0.4191-0.10066 0.22756-0.13087 0.25456-0.25105 0.2244-0.1108-0.0278-0.16575 0.004-0.29068 0.16769-0.18358 0.24068-0.43146 0.89352-0.38512 1.0143 0.02633 0.0686-0.01694 0.0854-0.22013 0.0854-0.1807 0-0.26283-0.0258-0.28765-0.0905zm1.4878-0.0148c-0.05919-0.11061-0.02905-0.3637 0.13406-1.1257 0.04899-0.22886 0.07452-0.46196 0.05673-0.518-0.03607-0.11363 0.1414-0.18563 0.3758-0.15245 0.1831 0.0259 0.19122 0.1727 0.04464 0.80703-0.0757 0.3276-0.1127 0.63093-0.09553 0.78324 0.03066 0.27201-0.0068 0.31123-0.29728 0.31123-0.1009 0-0.18331-0.0398-0.21842-0.10535zm4.7234-1.5468c-0.18695-0.10361-0.28287-0.30079-0.28521-0.58627-0.0016-0.19438 0.0304-0.27557 0.15941-0.40459 0.18433-0.18433 0.3908-0.25212 0.60453-0.19848 0.08124 0.0204 0.22034 0.10971 0.30911 0.19848 0.1347 0.1347 0.16141 0.20791 0.16141 0.44242 0 0.23886-0.02594 0.30695-0.17293 0.45394-0.13895 0.13895-0.21902 0.17254-0.40747 0.17094-0.129-0.001-0.29498-0.0355-0.36886-0.0764zm0.64978-0.16851c0.33871-0.29135 0.12584-0.87711-0.31875-0.87711-0.36122 0-0.57335 0.34782-0.4265 0.6993 0.13479 0.32259 0.48092 0.40518 0.74525 0.17781zm-0.54356-0.37128c0-0.38487 0.0031-0.39342 0.1442-0.39342 0.07931 0 0.19312 0.0262 0.25291 0.0582 0.11515 0.0616 0.14703 0.24872 0.05236 0.30723-0.03767 0.0233-0.03767 0.0697 0 0.14013 0.03099 0.0579 0.05635 0.1449 0.05635 0.1933 0 0.1495-0.11508 0.0971-0.17703-0.0806-0.03233-0.0927-0.09424-0.16861-0.13758-0.16861-0.05009 0-0.07881 0.0614-0.07881 0.16861 0 0.0927-0.02529 0.16861-0.0562 0.16861-0.03212 0-0.0562-0.16861-0.0562-0.39342zm0.30911-0.16861c0-0.0455-0.04426-0.0913-0.09836-0.10171-0.06901-0.0133-0.09835 0.0171-0.09835 0.10171 0 0.0847 0.02935 0.115 0.09835 0.10171 0.0541-0.0104 0.09836-0.0562 0.09836-0.10171zm-23.085 0.2378c-0.06952-0.015-0.098355-0.0756-0.098355-0.20679 0-0.16107 0.02218-0.19 0.168-0.21917 0.2551-0.051 0.3466 0.007 0.3268 0.20568-0.017702 0.17808-0.17838 0.26736-0.39644 0.22028zm2.5221-0.029c-0.072317-0.0529-0.089245-0.11338-0.062043-0.22176 0.068441-0.2727 0.53271-0.26142 0.53271 0.0129 0 0.18939-0.30947 0.32669-0.47066 0.20882zm15.856 0.029c-0.11768-0.0254-0.14394-0.40591-0.0281-0.40718 0.03864-0.00045 0.12339-0.015 0.18833-0.0325 0.0701-0.0188 0.15476 0.005 0.20835 0.0586 0.18343 0.18343-0.07006 0.44551-0.36858 0.38106zm-16.421-3.1365c-0.19343-0.19343-0.040691-0.80182 0.27414-1.0919 0.13263-0.12221 0.19663-0.13858 0.49166-0.12574 0.18655 0.008 0.35907 0.0271 0.38338 0.0421 0.024307 0.015 0.00746 0.14748-0.037435 0.29434-0.044899 0.14687-0.089569 0.41878-0.099267 0.60425-0.017266 0.33019-0.021011 0.33722-0.17985 0.33722-0.14026 0-0.16452-0.0236-0.17919-0.17412l-0.016973-0.17411-0.18817 0.18816c-0.20814 0.20815-0.31598 0.23217-0.4483 0.0998zm0.6145-0.61977c0.1553-0.26501 0.1462-0.35976-0.034571-0.35976-0.13167 0-0.27483 0.2954-0.27483 0.5671 0 0.14877 0.013156 0.16638 0.081759 0.10944 0.044967-0.0373 0.14741-0.17987 0.22764-0.31678zm1.005 0.62741c-0.018614-0.0485 0.021092-0.37878 0.088238-0.73392s0.10678-0.67047 0.088072-0.70074c-0.050376-0.0815 0.24037-0.13762 0.32955-0.0636 0.064462 0.0535 0.063707 0.12302-0.0048 0.44185-0.044719 0.20809-0.09844 0.54275-0.11938 0.74367-0.036064 0.34603-0.046252 0.36626-0.19295 0.38313-0.10109 0.0116-0.16663-0.0128-0.18872-0.0704zm-2.6049-0.0281c-0.082663-0.0535-0.073801-0.13982 0.086894-0.84672l0.031941-0.1405-0.12258 0.13997c-0.14944 0.17064-0.39179 0.63915-0.39179 0.7574 0 0.11549-0.27373 0.11435-0.31812-0.001-0.018466-0.0481 0.019006-0.26943 0.083274-0.49178 0.064269-0.22235 0.12443-0.4675 0.13369-0.54478 0.013776-0.1149 0.047565-0.1405 0.18545-0.1405 0.13155 0 0.17252 0.0275 0.1864 0.12516 0.01776 0.12496 0.01798 0.12498 0.13705 0.014 0.14106-0.13142 0.42484-0.14753 0.47119-0.0267 0.017805 0.0464-0.00768 0.25505-0.056634 0.46367-0.048955 0.20861-0.095931 0.45517-0.10439 0.54791-0.016429 0.18007-0.16452 0.24631-0.32239 0.14418zm4.6855-0.0659c-0.1623-0.17955-0.14353-0.68484 0.038591-1.0387 0.24114-0.46859 0.69389-0.66894 0.92753-0.41043 0.15384 0.1702 0.14314 0.72818-0.019945 1.0407-0.25066 0.48029-0.70426 0.67613-0.94618 0.4085zm0.57363-0.3094c0.17582-0.42081 0.16978-1.0334-0.010206-1.0334-0.10862 0-0.23128 0.28925-0.28073 0.66201-0.071652 0.54015 0.11883 0.78332 0.29094 0.37141zm2.3402 0.36989c-0.12818-0.0515-0.17328-0.24368-0.071903-0.30634 0.030003-0.0185 0.12991 0.005 0.22202 0.0529 0.092105 0.0476 0.1922 0.0866 0.22245 0.0866 0.11758 0 0.23161-0.18588 0.23161-0.37754v-0.2009l-0.13782 0.14871c-0.14571 0.15722-0.35667 0.19377-0.46917 0.0813-0.094874-0.0949-0.083967-0.58061 0.017445-0.77672 0.11052-0.21372 0.20506-0.25815 0.64726-0.30417l0.36683-0.0382-0.04788 0.63541c-0.053316 0.7076-0.11479 0.85508-0.40733 0.97732-0.21473 0.0897-0.38791 0.0962-0.57351 0.0216zm0.5469-1.0215c0.11628-0.25971 0.10485-0.32565-0.056459-0.32565-0.13153 0-0.22348 0.16035-0.22348 0.38972 0 0.25443 0.15302 0.2194 0.27993-0.0641zm-1.8782 0.91648c-0.017175-0.0278-0.014797-0.31913 0.00529-0.64742 0.034324-0.56097 0.044265-0.59883 0.16523-0.62919 0.16716-0.042 0.24745 0.0113 0.24771 0.16425 0 0.10679 0.015004 0.0989 0.11158-0.0595 0.13969-0.22911 0.33783-0.25166 0.33783-0.0385 0 0.19913-0.097743 0.36372-0.19405 0.32676-0.096983-0.0372-0.28378 0.30427-0.34329 0.6276-0.022495 0.12221-0.068864 0.24078-0.10304 0.26349-0.085307 0.0567-0.18971 0.0532-0.22725-0.008zm-8.4058-0.11808c-0.075392-0.0754-0.11241-0.18734-0.11241-0.34 0-0.62814 0.66703-1.0776 1.0423-0.7023 0.17042 0.17043 0.1755 0.36722 0.017872 0.69283-0.2036 0.42059-0.69534 0.60191-0.94777 0.34947zm0.56354-0.35126c0.14546-0.32046 0.14775-0.60418 0.004892-0.60418-0.11342 0-0.24799 0.23444-0.31375 0.5466-0.077699 0.36879 0.14846 0.41094 0.30886 0.0576zm-1.6652 0.23c-0.017382-0.0453 0.033996-0.27933 0.11417-0.52007 0.080176-0.24074 0.14577-0.48188 0.14577-0.53587 0-0.0718 0.045708-0.0982 0.17037-0.0982 0.093705 0 0.18299 0.0329 0.19841 0.0731 0.015427 0.0402-0.035952 0.2431-0.11417 0.45091-0.078216 0.2078-0.14222 0.45312-0.14222 0.54515 0 0.14883-0.018826 0.16732-0.17037 0.16732-0.097802 0-0.18383-0.0351-0.20197-0.0824zm-1.3965-0.17708c-0.1035-0.10351-0.091367-0.18481 0.039953-0.26764 0.070325-0.0444 0.11657-0.0261 0.20379 0.0803 0.1062 0.12959 0.11851 0.13207 0.20974 0.0424 0.091669-0.0901 0.088818-0.10594-0.052579-0.29131-0.27629-0.36224-0.13168-0.70933 0.29552-0.70933 0.36849 0 0.49645 0.10389 0.33134 0.269-0.051432 0.0514-0.089501 0.046-0.16651-0.0237-0.099838-0.0903-0.27264-0.0716-0.27264 0.0296 0 0.0295 0.06323 0.1288 0.14051 0.22064 0.28938 0.34391 0.082101 0.74088-0.38685 0.74088-0.1566 0-0.28571-0.0343-0.34228-0.0908zm13.795-0.16545c-0.08064-0.24436-0.04919-0.54802 0.08634-0.83363 0.1204-0.25372 0.18988-0.29197 0.61939-0.34092l0.33928-0.0387-0.02183 0.38642c-0.01201 0.21253 0.0054 0.48515 0.03874 0.60582 0.0461 0.16693 0.0441 0.22986-0.0083 0.26317-0.13096 0.0832-0.26826 0.045-0.33067-0.092l-0.06264-0.13748-0.12061 0.17963c-0.08516 0.12683-0.17218 0.18469-0.29607 0.19684-0.15786 0.0155-0.1823-0.004-0.24359-0.18921zm0.52611-0.37598c0.14254-0.37563 0.14246-0.51647-0.00045-0.53702-0.12288-0.0177-0.13672 0.005-0.21143 0.34031-0.03751 0.16853 0.01069 0.43557 0.07861 0.43557 0.02336 0 0.08326-0.10748 0.13312-0.23886zm-15.545 0.34215c-0.17294-0.0632-0.20362-0.21741-0.065968-0.33165 0.073419-0.0609 0.097329-0.0597 0.13965 0.007 0.028079 0.0444 0.051446 0.0997 0.051918 0.12284 0.0004496 0.0232 0.064089 0.0421 0.14137 0.0421 0.17327 0 0.18469-0.13703 0.028101-0.33721-0.1393-0.17809-0.14397-0.45984-0.00962-0.58142 0.10256-0.0928 0.47517-0.12651 0.65136-0.0589 0.11407 0.0438 0.11369 0.15636-0.0008543 0.25141-0.075671 0.0628-0.098139 0.0595-0.1433-0.0212-0.062758-0.11214-0.27278-0.12932-0.27278-0.0223 0 0.0404 0.063226 0.15908 0.14051 0.26383 0.18216 0.24691 0.17719 0.36538-0.02378 0.56635-0.17416 0.17416-0.35412 0.20213-0.6366 0.099zm16.681-0.16c-0.01459-0.0696-0.03554-0.36113-0.04656-0.64795-0.01927-0.5019-0.01526-0.52268 0.10657-0.55326 0.1555-0.039 0.24532 0.011 0.2456 0.13668 0 0.0608 0.03918 0.0311 0.10853-0.0826 0.12158-0.1994 0.30865-0.2844 0.42089-0.19124 0.04558 0.0378 0.0864 0.24195 0.1049 0.52451 0.01665 0.25443 0.04774 0.51835 0.06908 0.5865 0.03198 0.10211 0.01232 0.13056-0.11171 0.16169-0.08278 0.0208-0.17564 0.0126-0.20637-0.0181-0.03072-0.0307-0.07056-0.25021-0.08852-0.48775-0.01797-0.23755-0.05225-0.41162-0.07618-0.38684-0.08098 0.0838-0.22366 0.74485-0.18986 0.87953 0.02684 0.10693 0.0074 0.1408-0.09705 0.16876-0.19607 0.0525-0.21058 0.0471-0.23933-0.0899zm-17.904-0.0791c-0.40559-0.1634-0.36783-0.62642 0.083391-1.0226 0.15475-0.13587 0.25413-0.17695 0.42808-0.17695 0.45595 0 0.57418 0.21565 0.27969 0.51015-0.13441 0.1344-0.21175 0.16428-0.42525 0.16428-0.25154 0-0.26033 0.006-0.24319 0.15456 0.016793 0.14593 0.032683 0.15405 0.28474 0.14546 0.27343-0.009 0.30108 0.009 0.21685 0.14167-0.051832 0.0818-0.48475 0.13966-0.62432 0.0834zm0.50787-0.80818c0.11763-0.11762 0.10488-0.22276-0.027004-0.22276-0.065901 0-0.25606 0.22809-0.25606 0.30714 0 0.0732 0.17883 0.0199 0.28306-0.0844zm-2.1656 0.6206c-0.018997-0.0307 0.082465-0.27052 0.22546-0.53286 0.23667-0.43418 0.28672-0.65431 0.12622-0.55511-0.040394 0.025-0.048797 0.004-0.024217-0.0599 0.020709-0.054 0.037651-0.1087 0.037651-0.12163 0-0.0129 0.052219-0.0235 0.11603-0.0235 0.063819 0 0.17988-0.0759 0.25791-0.16861 0.11256-0.13377 0.18674-0.16861 0.35904-0.16861 0.28129 0 0.50347 0.1032 0.50347 0.23384 0 0.12845-0.25321 0.14448-0.30134 0.0191-0.041563-0.10831-0.11758-0.10698-0.22857 0.004-0.13011 0.13011-0.10863 0.19144 0.080289 0.22922 0.092734 0.0186 0.16861 0.0528 0.16861 0.076 0 0.0984-0.1637 0.16663-0.3233 0.13472-0.16788-0.0336-0.17494-0.0255-0.41552 0.47393-0.21675 0.45001-0.26202 0.50851-0.39597 0.51168-0.08318 0.002-0.16678-0.0216-0.18577-0.0523zm21.193-0.15508c-0.0172-0.0542-0.05436-0.32608-0.08257-0.60418-0.05442-0.53644-0.03186-0.60464 0.19058-0.57619 0.09946 0.0127 0.11675 0.0713 0.15009 0.50905 0.02073 0.27208 0.06439 0.52685 0.09702 0.56617 0.04199 0.0506 0.04002 0.0908-0.0068 0.1376-0.09964 0.0996-0.31272 0.0798-0.34834-0.0325zm0.89591-0.17912c-0.01756-0.0553 0.04457-0.30805 0.13806-0.56162s0.16999-0.46851 0.16999-0.47766c0-0.009-0.09484-0.0137-0.21076-0.0102-0.17185 0.005-0.21076-0.0133-0.21076-0.10039 0-0.071 0.04717-0.11374 0.14051-0.12746 0.07728-0.0114 0.26228-0.0607 0.41111-0.10968 0.14883-0.049 0.2852-0.0744 0.30304-0.0566s-0.05744 0.26701-0.16729 0.5537c-0.10985 0.2867-0.19013 0.53099-0.17839 0.54288 0.01174 0.0119 0.09757-0.01 0.19074-0.0485 0.20419-0.0846 0.34002-0.0433 0.34002 0.10322 0 0.0803-0.05386 0.11783-0.21076 0.14671-0.11592 0.0213-0.31714 0.0855-0.44718 0.14252-0.22646 0.0994-0.23776 0.0995-0.26834 0.003zm-16.137-0.1961c-0.05596-0.14583 0.022477-0.26636 0.16057-0.24675 0.092887 0.0132 0.1267 0.0555 0.1267 0.1585s-0.033816 0.14531-0.1267 0.1585c-0.076004 0.0108-0.14026-0.0173-0.16057-0.0703zm-7.2052-0.20284c-0.20053-0.18682-0.1686-0.50904 0.077416-0.78135 0.42414-0.46948 1.0364-0.40815 1.0358 0.10376-0.0005845 0.56674-0.74554 1.0202-1.1132 0.67759zm0.59327-0.33169c0.16402-0.24397 0.21523-0.44318 0.13464-0.52377-0.12393-0.12393-0.5137 0.37915-0.5137 0.66304 0 0.15641 0.2394 0.0684 0.37906-0.13927zm24.207 0.0835c-0.11629-0.11629-0.13795-0.19174-0.13795-0.48052 0-0.40269 0.10417-0.63798 0.33538-0.75754 0.24954-0.12905 0.37245-0.1074 0.44975 0.0792 0.08976 0.21671 0.03047 0.38417-0.21598 0.6099-0.1615 0.14792-0.18959 0.20274-0.1423 0.2777 0.09856 0.15625 0.18551 0.14636 0.36053-0.041 0.13182-0.14111 0.1743-0.161 0.20014-0.0937 0.05434 0.14161-0.08342 0.3223-0.33166 0.43501-0.30477 0.13837-0.35315 0.13566-0.5179-0.0291zm0.35738-0.86011c0.01258-0.13012-0.0058-0.18219-0.06424-0.18219-0.08989 0-0.15008 0.1162-0.15008 0.28973 0 0.19768 0.19424 0.10023 0.21432-0.10754zm-13.422 0.69c-4.4967-0.13769-8.5332-1.0622-11.743-2.6898-5.6152-2.8468-6.9939-7.3106-3.3771-10.934 2.7417-2.7465 7.7381-4.571 13.687-4.9982 1.0224-0.0734 3.8282-0.0726 4.8334 0.001 7.4028 0.54497 13.236 3.2281 15.11 6.9507 0.59968 1.1908 0.71074 2.7109 0.28872 3.9517-0.6844 2.0122-2.6149 3.8451-5.5074 5.229-3.2486 1.5543-7.1892 2.3933-11.662 2.4831-0.60277 0.0121-1.3362 0.0146-1.6299 0.006zm3.6813-0.35732c3.8887-0.33437 7.1513-1.1841 9.8879-2.5752 5.498-2.7948 6.8002-7.0705 3.2246-10.588-4.8653-4.7858-16.777-6.3732-25.618-3.4138-0.93054 0.3115-1.6868 0.62678-2.6415 1.1013-2.8617 1.4222-4.6862 3.2633-5.2362 5.2836-0.17051 0.62631-0.17049 1.7708 0 2.4085 0.69717 2.607 3.6381 4.9737 7.962 6.4076 2.4954 0.82748 4.9283 1.2534 8.318 1.4562 0.58702 0.0351 3.4007-0.02 4.1028-0.0804zm-4.7491-0.82321c-3.5131-0.24336-6.388-0.85163-8.8941-1.8818-3.5764-1.4701-5.7104-3.5416-6.0022-5.8265-0.21579-1.6896 0.76572-3.4862 2.6842-4.9132 6.0646-4.511 19.013-5.0495 26.544-1.1038 2.6243 1.3751 4.176 3.1462 4.4458 5.0745 0.20928 1.496-0.54295 3.1115-2.0724 4.4508-2.5793 2.2585-7.2722 3.8252-12.513 4.1772-0.79741 0.0536-3.5339 0.0685-4.1924 0.0229zm-7.1274-3.2085c0.015305-0.13303 0.039746-0.15198 0.17545-0.13608 0.20603 0.0241 0.39319-0.10321 0.50837-0.34593 0.10406-0.21928 0.124-0.63012 0.033308-0.68617-0.10979-0.0679-0.30491 0.0271-0.43567 0.21194l-0.12976 0.18346 0.037656-0.21076c0.035615-0.19935 0.029711-0.21076-0.1091-0.21076-0.12771 0-0.14702 0.0237-0.14874 0.18265-0.00108 0.10047-0.038132 0.34706-0.08233 0.54798-0.1119 0.50873-0.10758 0.61823 0.024369 0.61823 0.076773 0 0.11389-0.0454 0.12646-0.15456zm0.12419-0.37473c-0.032827-0.0856 0.20519-0.55493 0.31618-0.62352 0.10388-0.0642 0.12813 0.15063 0.046689 0.41368-0.060523 0.19547-0.11226 0.26594-0.2051 0.2794-0.073392 0.0106-0.1379-0.0178-0.15776-0.0696zm-2.512 0.16186c0.19052-0.12483 0.15766-0.20552-0.038137-0.0936-0.26498 0.15143-0.36759 0.0489-0.36145-0.36118 0.00607-0.40592 0.14027-0.69523 0.32248-0.69523 0.070303 0 0.15597 0.0281 0.19037 0.0625 0.074983 0.075 0.18474 0.0192 0.18474-0.094 0-0.13443-0.45988-0.1052-0.64581 0.0411-0.34614 0.27227-0.49467 1.0159-0.23938 1.1985 0.14197 0.1015 0.37951 0.078 0.58719-0.0581zm0.96025-0.001c0.27036-0.18937 0.38935-0.70734 0.20488-0.89182-0.048577-0.0486-0.17241-0.0883-0.27519-0.0883-0.3726 0-0.71283 0.62206-0.50975 0.932 0.10569 0.16129 0.38537 0.18451 0.58007 0.0481zm-0.34377-0.0622c-0.14159-0.14159 0.053662-0.80557 0.23689-0.80557 0.19114 0 0.21107 0.2665 0.051473 0.68848-0.054485 0.14407-0.20163 0.20382-0.28836 0.11709zm1.0206-0.0609c0.097194-0.31892 0.28202-0.59146 0.37652-0.5552 0.045902 0.0176 0.10594-0.0152 0.13821-0.0755 0.15306-0.286-0.036136-0.30798-0.26466-0.0307l-0.16129 0.19568 0.022845-0.19568c0.018943-0.16228 0.00477-0.19568-0.083049-0.19568-0.087582 0-0.12265 0.0814-0.20286 0.47108-0.12033 0.58456-0.12019 0.59677 0.00654 0.59677 0.070721 0 0.12385-0.0667 0.16774-0.21076zm2.3338 0.0509c0.33854-0.35335 0.30473-0.86201-0.059638-0.89733-0.098818-0.01-0.23277 0.011-0.29768 0.0457-0.2878 0.15402-0.44258 0.72902-0.24849 0.92311 0.14469 0.14469 0.43106 0.11088 0.60581-0.0715zm-0.43916-0.0585c-0.045502-0.14336 0.054017-0.56434 0.15798-0.66831 0.2262-0.22621 0.35008 0.17239 0.18005 0.57935-0.090787 0.21728-0.28138 0.26744-0.33803 0.089zm1.0377 0.1037c0-0.24817 0.3225-0.72266 0.44127-0.64925 0.055195 0.0341 0.12075-0.0876 0.12075-0.22425 0-0.14949-0.16425-0.0801-0.3104 0.13105l-0.14585 0.21076 0.037674-0.21076c0.035632-0.19935 0.029729-0.21076-0.10909-0.21076-0.1277 0-0.14702 0.0237-0.14877 0.18266-0.00112 0.10047-0.036392 0.32652-0.078423 0.50234-0.081534 0.34106-0.071732 0.38285 0.089794 0.38285 0.066238 0 0.10304-0.0409 0.10304-0.11464zm1.0579-0.0961 0.16954-0.21076-0.00953 0.19671c-0.00779 0.1608 0.012041 0.19979 0.1086 0.21358 0.10824 0.0155 0.12101-0.0175 0.15255-0.39342 0.018929-0.22565 0.050196-0.46444 0.069484-0.53063 0.032962-0.11311 0.01495-0.12063-0.29966-0.12506-0.37384-0.005-0.45302 0.0475-0.60039 0.40022-0.088701 0.21229-0.11573 0.55591-0.048977 0.62266 0.099357 0.0994 0.30011 0.0235 0.45838-0.1733zm-0.23473 0.004c-0.050681-0.0507 0.016362-0.40245 0.11315-0.59365 0.086894-0.17166 0.19468-0.19736 0.29926-0.0713 0.055978 0.0675 0.041927 0.12952-0.074183 0.32765-0.15968 0.27247-0.28155 0.39403-0.33822 0.33735zm1.3923 0.17312c0.14805-0.0568 0.10575-0.17833-0.051608-0.14825-0.12747 0.0244-0.14043 0.009-0.13974-0.16235 0.0013-0.3226 0.053289-0.42764 0.22902-0.46279 0.089996-0.018 0.16363-0.0591 0.16363-0.0914 0-0.0349-0.058311-0.044-0.1438-0.0226-0.13763 0.0345-0.14306 0.0267-0.12646-0.18159 0.01508-0.18923 0.0008093-0.22003-0.10911-0.23564-0.10206-0.0145-0.12646 0.009-0.12646 0.12186 0 0.21338-0.057309 0.31762-0.17462 0.31762-0.058514 0-0.10639 0.0253-0.10639 0.0562s0.046756 0.0562 0.1039 0.0562c0.094591 0 0.09947 0.0282 0.054454 0.3153-0.034765 0.22168-0.030197 0.33849 0.015391 0.39341 0.067789 0.0817 0.26006 0.10223 0.41179 0.044zm0.93563-0.0241c0.16813-0.09 0.12834-0.16427-0.051608-0.0964-0.21359 0.0806-0.34551 0.0223-0.34551-0.15282 0-0.098 0.030642-0.14233 0.098355-0.14248 0.054098-0.00009 0.18055-0.0503 0.28101-0.11158 0.15031-0.0916 0.18266-0.14635 0.18266-0.3089 0-0.19138-0.006681-0.19754-0.21429-0.19754-0.2212 0-0.42292 0.15401-0.56567 0.43188-0.083058 0.16166-0.080581 0.48358 0.004361 0.56853 0.082762 0.0828 0.46258 0.0885 0.61068 0.009zm-0.34091-0.59184c0-0.13875 0.10843-0.30542 0.19869-0.30542 0.10908 0 0.10528 0.19383-0.005989 0.3051-0.11269 0.11269-0.1927 0.11283-0.1927 0.00031zm1.2927 0.56837c0-0.0449 0.029351-0.14608 0.065226-0.22482 0.050938-0.1118 0.10633-0.14315 0.25291-0.14315 0.16104 0 0.18769 0.0193 0.18769 0.13591 0 0.21255 0.058424 0.31371 0.18118 0.31371 0.089704 0 0.10597-0.026 0.079057-0.12645-0.018637-0.0696-0.034234-0.37305-0.034657-0.67443-0.0007644-0.5393-0.00288-0.54798-0.13439-0.54798-0.16662 0-0.17409 0.01-0.5652 0.74469-0.32126 0.60361-0.32142 0.60417-0.17669 0.60417 0.089223 0 0.14487-0.0314 0.14487-0.0816zm0.22735-0.55063c0.00139-0.0386 0.063482-0.18406 0.13797-0.32316l0.13543-0.25291 0.00252 0.32316c0.00243 0.30792-0.00409 0.32317-0.13797 0.32317-0.077281 0-0.13936-0.0316-0.13797-0.0703zm1.2901 0.51988c0.1544-0.1544 0.14106-0.3623-0.033636-0.52429-0.22821-0.21161-0.1491-0.38882 0.13902-0.31141 0.042503 0.0114 0.088872-0.0109 0.10304-0.0495 0.017625-0.0481-0.038991-0.0703-0.17933-0.0703-0.27005 0-0.40121 0.0761-0.44726 0.25959-0.030381 0.12105-0.00297 0.18598 0.14147 0.335 0.11132 0.11485 0.16637 0.21817 0.14539 0.27285-0.040021 0.1043-0.21183 0.11581-0.30707 0.0206-0.081319-0.0813-0.21502 0.0213-0.15477 0.11874 0.066054 0.10688 0.46991 0.072 0.59315-0.0513zm0.84304 0c0.1544-0.1544 0.14106-0.3623-0.033636-0.52429-0.22821-0.21161-0.1491-0.38882 0.13902-0.31141 0.042503 0.0114 0.088872-0.0109 0.10304-0.0495 0.017625-0.0481-0.038991-0.0703-0.17933-0.0703-0.27005 0-0.40121 0.0761-0.44726 0.25959-0.030381 0.12105-0.00297 0.18598 0.14147 0.335 0.11132 0.11485 0.16637 0.21817 0.14539 0.27285-0.040021 0.1043-0.21183 0.11581-0.30707 0.0206-0.081319-0.0813-0.21502 0.0213-0.15477 0.11874 0.066054 0.10688 0.46991 0.072 0.59315-0.0513zm0.94326 0.0247c0.27036-0.18937 0.38935-0.70734 0.20488-0.89182-0.048577-0.0486-0.17241-0.0883-0.27519-0.0883-0.3726 0-0.71283 0.62206-0.50975 0.932 0.10569 0.16129 0.38537 0.18451 0.58007 0.0481zm-0.34377-0.0622c-0.14159-0.14159 0.053662-0.80557 0.23689-0.80557 0.19114 0 0.21107 0.2665 0.051473 0.68848-0.054485 0.14407-0.20163 0.20382-0.28836 0.11709zm1.3713 0.0917c0.15978-0.0855 0.13469-0.17605-0.028209-0.10183-0.22281 0.10152-0.3127 0.0279-0.3127-0.25608 0-0.36441 0.080505-0.53935 0.2482-0.53935 0.07622 0 0.15447 0.0257 0.17388 0.0571 0.046104 0.0746 0.13994 0.0152 0.13994-0.0885 0-0.11194-0.38718-0.1072-0.54984 0.007-0.25634 0.17955-0.39566 0.74279-0.22575 0.91269 0.082802 0.0828 0.40696 0.0882 0.55448 0.009zm0.57449-0.0697c-0.013448-0.0703 0.01535-0.29954 0.063994-0.50931 0.048649-0.20976 0.088449-0.39246 0.088449-0.406 0-0.0135-0.059939-0.0246-0.1332-0.0246-0.14138 0-0.14264 0.004-0.24142 0.80089-0.031716 0.25583-0.027265 0.26696 0.10677 0.26696 0.11521 0 0.13555-0.0225 0.11541-0.12792zm0.71038-0.0816 0.1727-0.20951v0.20951c0 0.17205 0.020103 0.20951 0.11241 0.20951 0.094906 0 0.11241-0.0375 0.11241-0.24066 0-0.13236 0.034234-0.37263 0.076071-0.53392l0.076071-0.29327h-0.33167c-0.28614 0-0.35051 0.0203-0.46895 0.14814-0.13122 0.14159-0.24978 0.44843-0.25045 0.64816-0.00112 0.33541 0.25043 0.36654 0.50142 0.062zm-0.22072-0.14742c0-0.25233 0.10014-0.52558 0.20776-0.56687 0.089461-0.0343 0.24186 0.0558 0.24186 0.14301 0 0.0832-0.34411 0.61219-0.39824 0.61219-0.028259 0-0.051383-0.0847-0.051383-0.18833zm1.45 0.28949c0.1076-0.1076 0.078504-0.16228-0.06693-0.12578-0.17737 0.0445-0.2176-0.0353-0.17178-0.34087 0.032085-0.21394 0.057439-0.25274 0.16515-0.25274 0.069983 0 0.15766-0.0367 0.19484-0.0815 0.056531-0.0681 0.04181-0.0796-0.08987-0.0703-0.14913 0.0106-0.15658 0.00003-0.14072-0.19956 0.014302-0.17987 0.000027-0.21076-0.097406-0.21076-0.086417 0-0.12332 0.0488-0.15183 0.20077-0.027036 0.14411-0.0793 0.21831-0.1852 0.26295-0.14436 0.0608-0.14481 0.0626-0.021056 0.0842 0.11818 0.0205 0.12416 0.0418 0.091021 0.32374-0.019505 0.16597-0.020314 0.34125-0.0018 0.38951 0.040506 0.10555 0.376 0.11988 0.47558 0.0203zm0.85798 0.009c0.059791-0.032 0.10871-0.0835 0.10871-0.11438 0-0.0368-0.037552-0.0361-0.10871 0.002-0.15893 0.0851-0.32393 0.0711-0.363-0.0307-0.058325-0.15199-0.037773-0.24832 0.052979-0.24832 0.15963 0 0.4229-0.17227 0.47577-0.31131 0.079929-0.21023 0.014033-0.30692-0.20918-0.30692-0.38818 0-0.74971 0.57402-0.58676 0.93165 0.050938 0.1118 0.10322 0.1362 0.29177 0.1362 0.12634 0 0.27863-0.0262 0.33842-0.0582zm-0.34091-0.59228c0-0.13875 0.10843-0.30542 0.19869-0.30542 0.12366 0 0.10272 0.26615-0.026384 0.33524-0.14611 0.0782-0.1723 0.0737-0.1723-0.0298zm1.4505 0.45135c0.00409-0.10927 0.03757-0.30527 0.074358-0.43557l0.06689-0.2369 0.078679 0.28102c0.11487 0.41028 0.1196 0.42152 0.17715 0.42152 0.02896 0 0.1495-0.16556 0.26787-0.3679 0.23684-0.40488 0.28568-0.39645 0.1935 0.0334-0.08864 0.41331-0.07944 0.5031 0.05153 0.5031 0.08486 0 0.11271-0.0379 0.11362-0.15455 0.000675-0.085 0.05125-0.3809 0.1124-0.65754 0.06115-0.27663 0.11119-0.51058 0.11119-0.51987 0-0.009-0.06323-0.0169-0.14051-0.0169-0.07978 0-0.14051 0.0325-0.14051 0.0751 0 0.0413-0.11154 0.24845-0.24786 0.46033l-0.24786 0.38523-0.05596-0.22147c-0.03078-0.12181-0.07822-0.32247-0.10542-0.44591-0.03119-0.14152-0.085109-0.23129-0.14596-0.24301-0.10941-0.0211-0.098467-0.0484-0.26325 0.65744-0.067699 0.28997-0.13638 0.56185-0.15262 0.60418-0.020035 0.0522 0.014649 0.077 0.10788 0.077 0.11843 0 0.13844-0.0274 0.14488-0.19867zm1.9815 0.14049c0.16813-0.09 0.12834-0.16427-0.05161-0.0964-0.21359 0.0806-0.34551 0.0223-0.34551-0.15282 0-0.0979 0.03064-0.14233 0.09835-0.14248 0.0541-0.00009 0.18056-0.0503 0.28101-0.11158 0.15031-0.0916 0.18266-0.14635 0.18266-0.3089 0-0.19137-0.0067-0.19754-0.21429-0.19754-0.2212 0-0.42292 0.15402-0.56567 0.43188-0.08306 0.16166-0.08058 0.48358 0.0044 0.56853 0.08276 0.0828 0.46258 0.0885 0.61068 0.009zm-0.34091-0.59184c0-0.13875 0.10843-0.30542 0.19869-0.30542 0.10908 0 0.10528 0.19383-0.006 0.3051-0.11269 0.11269-0.1927 0.11283-0.1927 0.00031zm0.86229 0.49547c0.04533-0.21037 0.36744-0.75548 0.42529-0.71973 0.02565 0.0159 0.02808 0.12421 0.0054 0.24079-0.02267 0.11659-0.06013 0.30682-0.08323 0.42273-0.03725 0.18691-0.02937 0.21076 0.06963 0.21076 0.07624 0 0.12219-0.049 0.14494-0.15455 0.04593-0.21315 0.36778-0.75527 0.42676-0.71882 0.02663 0.0165 0.02622 0.12399-0.000899 0.2408-0.02696 0.11608-0.04961 0.3059-0.05035 0.42181-0.0011 0.16853 0.01962 0.21076 0.10326 0.21076 0.08602 0 0.11049-0.0574 0.1378-0.32316 0.01826-0.17774 0.05037-0.41801 0.07136-0.53393 0.03596-0.19856 0.02985-0.21076-0.10561-0.21076-0.09766 0-0.1997 0.0676-0.31817 0.21076l-0.1744 0.21076 0.01575-0.19667c0.02284-0.28507-0.16637-0.30079-0.38775-0.0322l-0.16381 0.19872 0.02285-0.19568c0.01903-0.16298 0.0049-0.19568-0.08427-0.19568-0.08797 0-0.11943 0.0678-0.176 0.37937-0.03789 0.20865-0.08392 0.44892-0.1023 0.53393-0.02768 0.12805-0.01421 0.15455 0.07853 0.15455 0.07657 0 0.12245-0.0488 0.14524-0.15455zm2.1686 0.006c0.14735-0.18733 0.24445-0.50716 0.21981-0.72404-0.02879-0.25337-0.21246-0.2502-0.43878 0.008l-0.18344 0.20892 0.04258-0.24825c0.06618-0.38584 0.06238-0.41686-0.05107-0.41686-0.08989 0-0.1257 0.0974-0.23755 0.64633-0.07244 0.35548-0.13229 0.65266-0.13301 0.66038-0.00072 0.008 0.1486 0.014 0.33182 0.014 0.29297 0 0.34718-0.0178 0.44964-0.14811zm-0.43683-0.0381c-0.11129-0.13409 0.24042-0.71791 0.38038-0.6314 0.06741 0.0417 0.02012 0.3327-0.08947 0.55063-0.08413 0.1673-0.19382 0.19776-0.29091 0.0808zm1.4604 0.0757c0.07297-0.0608 0.10256-0.11138 0.06574-0.11241-0.03682-0.001-0.08257 0.0234-0.10167 0.0543-0.05611 0.0908-0.34952 0.066-0.3874-0.0327-0.06721-0.17514-0.0312-0.23635 0.16016-0.27225 0.22237-0.0417 0.43729-0.27649 0.4124-0.45049-0.01281-0.0895-0.06443-0.11966-0.22819-0.1332-0.17179-0.0142-0.24236 0.0132-0.37481 0.14568-0.26087 0.26086-0.34197 0.73593-0.14828 0.86855 0.12008 0.0822 0.46931 0.0431 0.60205-0.0675zm-0.40125-0.50505c0-0.13031 0.13999-0.34278 0.21612-0.328 0.13277 0.0258 0.13801 0.13983 0.0122 0.26564-0.12272 0.12271-0.22833 0.15156-0.22833 0.0624zm0.92154 0.43385c0.0489-0.24453 0.30364-0.62145 0.39604-0.586 0.04116 0.0158 0.1013-0.0328 0.1367-0.1105 0.08314-0.18247 0.08146-0.18962-0.04462-0.18962-0.0626 0-0.15881 0.0825-0.2294 0.19671-0.06686 0.10819-0.13057 0.19671-0.14156 0.19671s-0.0056-0.0885 0.01194-0.19671c0.02793-0.17213 0.01728-0.19671-0.08529-0.19671-0.09162 0-0.12503 0.046-0.153 0.21076-0.01968 0.11592-0.05863 0.29928-0.08654 0.40747-0.08141 0.31556-0.06531 0.44962 0.054 0.44962 0.07382 0 0.11627-0.0544 0.14173-0.18173zm-9.9245-1.1812c0.012976-0.0681-0.017131-0.0983-0.097779-0.0983-0.064089 0-0.11653 0.0106-0.11653 0.0235s-0.016204 0.0657-0.03601 0.11735c-0.028394 0.074-0.00772 0.0898 0.097779 0.0748 0.073589-0.0104 0.14223-0.0633 0.15254-0.11735zm6.1583-1.1751c1.2709-0.42207 2.5446-2.138 2.9131-3.9245 0.15412-0.74723 0.12448-1.8658-0.06034-2.277-0.26901-0.59849-0.69221-0.87719-1.3902-0.91553-0.80946-0.0444-1.4494 0.22965-2.1324 0.91331-0.89653 0.89748-1.5958 2.282-1.7723 3.5093-0.083175 0.57828-0.039917 1.4452 0.092118 1.846 0.10978 0.33326 0.40112 0.70454 0.65646 0.83658 0.4001 0.2069 1.0917 0.21174 1.6936 0.0118zm-0.56861-0.62124c-0.06895-0.0333-0.17975-0.17286-0.24624-0.31018-0.1125-0.23239-0.11869-0.30873-0.0894-1.1019 0.03237-0.87658 0.1217-1.4001 0.40331-2.3635 0.39359-1.3464 0.84716-2.0006 1.3875-2.0012 0.37409-0.0004 0.61082 0.46557 0.60808 1.1969-0.0017 0.45816-0.14653 1.4346-0.30676 2.0684-0.36261 1.4344-0.75556 2.2355-1.2103 2.4675-0.24368 0.12432-0.36019 0.13369-0.54617 0.0439zm-6.0923 0.42505 0.30184-0.083-0.033717-0.20722c-0.038452-0.23629 0.07858-1.0693 0.26559-1.8903l0.12733-0.55905 0.61451-0.12261c1.8311-0.36535 2.9112-1.2751 2.9902-2.5186 0.035808-0.56366-0.055546-0.84953-0.37288-1.1669-0.38858-0.38858-0.70643-0.47041-1.8061-0.46496-0.95655 0.005-1.4829 0.0911-2.0012 0.32844-0.28999 0.13276-0.30403 0.14866-0.26257 0.29717 0.15397 0.55141-0.16288 2.2877-0.96652 5.2965-0.16897 0.63262-0.18212 0.96101-0.043465 1.0855 0.17452 0.1567 0.62854 0.15862 1.187 0.005zm0.85051-3.5386c0.0004496-0.0907 0.56523-2.6797 0.59527-2.7283 0.016164-0.0262 0.19862-0.0475 0.40544-0.0473 0.65909 0.0004 0.90997 0.26015 0.90997 0.94224 0 0.79692-0.28804 1.318-0.90173 1.6314-0.35403 0.18079-1.0094 0.31197-1.009 0.20196zm-3.0849 3.4545c0.20808-0.0895 0.27508-0.14555 0.25277-0.2114-0.016694-0.0493-0.094488-0.27115-0.17287-0.49305-0.22714-0.64298-0.25843-1.2255-0.19726-3.6727 0.051432-2.0579 0.048469-2.2227-0.043379-2.4104-0.094838-0.1939-0.11132-0.20221-0.43357-0.21877-0.2984-0.0153-1.0052 0.10906-1.199 0.21102-0.040016 0.021-0.23061 0.32748-0.42355 0.68096-0.43636 0.79946-1.0193 1.8473-2.237 4.0212-0.94054 1.6791-1.0446 1.926-0.88056 2.09 0.086489 0.0865 0.73037 0.0809 1.0285-0.009 0.21929-0.0661 0.22575-0.0753 0.26362-0.37855 0.042206-0.33789 0.14725-0.6299 0.46825-1.3017l0.20827-0.43589 0.59778 0.55691c0.32878 0.30629 0.8254 0.79329 1.1036 1.0822 0.2782 0.28892 0.55641 0.55768 0.61823 0.59723 0.15569 0.0996 0.69217 0.0442 1.0462-0.10813zm-2.0392-1.898c-0.26818-0.25-0.59153-0.57-0.71877-0.73l-0.23135-0.27632 0.73992-1.5354c0.75721-1.5713 0.7714-1.5991 0.79555-1.5588 0.00773 0.0129-0.01124 1.0439-0.042152 2.2912l-0.056203 2.2678-0.4872-0.45603zm-4.276 1.7302 0.35127-0.17813v-0.34612c0-0.25937 0.12534-0.81015 0.50007-2.1975 0.27504-1.0183 0.58781-2.1423 0.69505-2.4978 0.24419-0.80948 0.2955-1.1423 0.20848-1.3524-0.12619-0.30465-0.7125-0.3582-1.2617-0.11526l-0.25166 0.11133 0.089875 0.21449c0.19137 0.45675 0.060164 1.483-0.48818 3.8184-0.15331 0.65292-0.27975 1.2093-0.28099 1.2365-0.00594 0.13022-0.17394-0.29845-0.35512-0.90613-0.22748-0.76298-0.51284-1.9254-0.76192-3.1037-0.18484-0.87439-0.33536-1.2858-0.54123-1.4792-0.11306-0.10621-0.17368-0.12041-0.38853-0.091-0.25345 0.0347-0.73704 0.24866-0.96521 0.42697-0.10544 0.0824-0.1105 0.10639-0.042152 0.19986 0.042723 0.0584 0.077672 0.18669 0.077672 0.28503 0 0.15856-0.47534 1.9192-1.1143 4.1273-0.31058 1.0733-0.38303 1.5113-0.28412 1.7176 0.11236 0.23434 0.30416 0.31652 0.65293 0.27975 0.24691-0.026 0.78567-0.17071 0.84775-0.22766 0.00989-0.009-0.031964-0.11437-0.093-0.23401-0.24898-0.48804-0.20926-0.94081 0.24812-2.8283 0.31787-1.3118 0.36279-1.478 0.39157-1.4493 0.012841 0.0128 0.18658 0.61606 0.38608 1.3405 0.73293 2.6614 0.93523 3.1821 1.3215 3.4013 0.21171 0.12013 0.64283 0.058 1.0578-0.15244zm-7.222 7.4232c-0.17803-0.07-0.15844-0.18343 0.0897-0.5194 0.11888-0.16097 0.25863-0.37486 0.31056-0.47532 0.10543-0.20399 0.13712-0.21581 0.28624-0.10676 0.067803 0.0496 0.092977 0.11728 0.072591 0.19523-0.030192 0.11546-0.025759 0.11651 0.13683 0.0324 0.19857-0.10269 0.32649-0.0694 0.32649 0.0849 0 0.15073-0.2079 0.28613-0.38753 0.25241-0.1107-0.0208-0.19435 0.0177-0.3431 0.15768-0.10819 0.10183-0.23464 0.23991-0.28101 0.30684-0.06679 0.0964-0.11058 0.11137-0.21076 0.072zm27.564-0.20789c-0.01304-0.0232-0.06859-0.23183-0.12343-0.46367-0.05485-0.23184-0.1233-0.4674-0.15211-0.52347-0.03484-0.0678-0.02995-0.12899 0.01459-0.18265 0.10259-0.12361 0.28375-0.0991 0.32102 0.0434 0.02758 0.10546 0.04183 0.0906 0.09467-0.0983 0.07619-0.27253 0.27652-0.34323 0.33316-0.11758 0.04268 0.17005-0.0073 0.31659-0.10808 0.31659-0.10683 0-0.16674 0.47342-0.0911 0.71989 0.04437 0.14459 0.04451 0.22131 0.000494 0.27434-0.06615 0.0797-0.25079 0.0998-0.28923 0.0315zm-3.9171-0.15077c0-0.13942 0.1675-0.24255 0.28051-0.1727 0.08813 0.0545 0.06675 0.23734-0.0322 0.27531-0.17275 0.0663-0.24832 0.0351-0.24832-0.10261zm-25.103-0.36873c-0.06639-0.0268-0.1358-0.0731-0.15425-0.10298-0.01845-0.0299 0.156-0.27552 0.38767-0.54593 0.23167-0.2704 0.42121-0.52595 0.42121-0.56788 0-0.19992 0.70862 0.0233 0.8636 0.27206 0.10033 0.16103-0.02249 0.39736-0.26918 0.51794-0.1859 0.0909-0.26246 0.0988-0.49453 0.0513l-0.27459-0.0562-0.17508 0.2438c-0.0963 0.13409-0.17712 0.2422-0.17961 0.24024-0.0025-0.002-0.05884-0.0255-0.12522-0.0523zm1.0589-0.66075c0.1492-0.17374 0.16065-0.22795 0.06778-0.32083-0.0839-0.0839-0.10576-0.0743-0.27919 0.12193-0.10349 0.11712-0.18922 0.23192-0.1905 0.2551-0.0047 0.0847 0.31989 0.0393 0.40192-0.0562zm29.074 0.54747c-0.01928-0.0312-0.01992-0.10438-0.0014-0.16264 0.02457-0.0774 0.08226-0.10376 0.21439-0.0978 0.14458 0.006 0.18077-0.0139 0.18077-0.10164 0-0.0834-0.06049-0.12444-0.25216-0.17111-0.46361-0.11288-0.52459-0.52543-0.11815-0.79933 0.24688-0.16637 0.34221-0.16294 0.34221 0.0123 0 0.11287-0.02798 0.14051-0.14227 0.14051-0.16182 0-0.25131 0.15463-0.13288 0.22962 0.04314 0.0273 0.14701 0.0501 0.23081 0.0505 0.19574 0.001 0.38156 0.20102 0.38156 0.4105 0 0.31331-0.56744 0.70819-0.70284 0.4891zm1.6451-0.3321c-0.16071-0.14359-0.18355-0.19881-0.18355-0.44372 0-0.31977 0.11069-0.48357 0.41329-0.61159 0.25624-0.10839 0.47456-0.0489 0.6803 0.18546 0.24697 0.28129 0.23977 0.58286-0.02013 0.84276-0.16174 0.16173-0.23066 0.19108-0.44873 0.19108-0.20526 0-0.29496-0.0333-0.44119-0.16399zm0.77445-0.0864c0.29812-0.29812 0.09751-0.8737-0.30452-0.8737-0.24333 0-0.33858 0.0506-0.43075 0.22883-0.12674 0.24509-0.10156 0.43492 0.08206 0.61853 0.20961 0.20962 0.45984 0.21971 0.65321 0.0263zm-0.59268-0.33685c0-0.4121 0.06098-0.4841 0.32974-0.38933 0.12035 0.0424 0.14858 0.0886 0.15121 0.24739 0.0018 0.10737 0.02122 0.26477 0.04322 0.34978 0.05683 0.21962-0.10142 0.20717-0.17854-0.014-0.07287-0.20904-0.16372-0.21795-0.18735-0.0184-0.0098 0.0826-0.0494 0.16061-0.08804 0.17329-0.05145 0.0169-0.07025-0.0764-0.07025-0.34869zm0.36357-0.14061c0.01815-0.0294-0.0183-0.0808-0.08099-0.11438-0.09715-0.052-0.11398-0.0441-0.11398 0.0534 0 0.11623 0.13477 0.1584 0.19497 0.061zm-33.158-0.97261c-0.2782-0.22278-0.75874-0.65892-1.0678-0.96919-3.4644-3.4774-3.5408-7.7278-0.20268-11.274 0.4915-0.52218 1.5531-1.4556 1.6555-1.4556 0.12352 0-0.01954 0.17842-0.33799 0.42152-0.52228 0.39871-1.4445 1.3219-1.8809 1.8828-0.65452 0.84133-1.0446 1.5469-1.3665 2.4718-0.26711 0.76738-0.36841 1.3816-0.36841 2.2337 0 1.5181 0.48634 2.9245 1.5103 4.3673 0.41908 0.59052 1.5031 1.7058 2.1342 2.1958 0.44214 0.34327 0.61406 0.53712 0.47231 0.53257-0.02318-0.00074-0.26977-0.18363-0.54798-0.40641zm32.156 0.14055c-0.01441-0.0233 0.22717-0.24356 0.53685-0.48941s0.80792-0.69067 1.1072-0.98849c1.5373-1.5298 2.2081-2.995 2.2887-4.9992 0.09421-2.3416-0.83313-4.3459-2.9334-6.3401-0.35343-0.3356-0.64261-0.62706-0.64261-0.64769 0-0.10027 0.14632 0.003 0.65505 0.46069 1.6073 1.4471 2.661 3.2184 2.9705 4.9934 0.10753 0.61662 0.10741 1.8632-0.000225 2.527-0.24517 1.5116-0.92439 2.7643-2.1921 4.0428-0.6027 0.60782-1.6206 1.4836-1.7244 1.4836-0.02169 0-0.05123-0.0191-0.06565-0.0424zm-1.6669-13.548-0.12529-0.10146 0.37962-0.44652c0.28301-0.33289 0.35622-0.45115 0.28767-0.46469-0.05057-0.01-0.09195-0.0385-0.09195-0.0634 0-0.0847 0.16692-0.18404 0.25347-0.15082 0.04795 0.0184 0.13568-0.0163 0.19742-0.078 0.19796-0.19797 0.76957-0.0993 0.86496 0.14926 0.03172 0.0826-0.04411 0.18751-0.1356 0.18751-0.06544 0-0.17703-0.0991-0.16335-0.14507 0.02364-0.0794-0.17111-0.0941-0.26087-0.0196-0.11858 0.0984-0.10055 0.15947 0.0589 0.19949 0.07728 0.0194 0.14051 0.0678 0.14051 0.10747 0 0.1109-0.15364 0.14483-0.31761 0.0701-0.13806-0.0629-0.16208-0.0509-0.36912 0.18417-0.1218 0.1383-0.28603 0.34629-0.36496 0.46221-0.16438 0.24142-0.1834 0.24729-0.35381 0.10931zm-29.077-0.0554c-0.0151-0.0244-0.09446-0.30877-0.17636-0.63187s-0.17148-0.61465-0.19907-0.6479c-0.05824-0.0702 0.08611-0.30569 0.18736-0.30569 0.03616 0 0.25128 0.18336 0.47803 0.40747 0.37214 0.36778 0.40838 0.39104 0.37212 0.23886-0.06644-0.27892-0.19064-0.60834-0.28184-0.74753-0.10329-0.15764-0.01604-0.30798 0.163-0.28088 0.09103 0.0138 0.14542 0.14455 0.30565 0.7348 0.15655 0.57671 0.18138 0.73435 0.12616 0.80089-0.12746 0.15358-0.29879 0.0886-0.62944-0.23856-0.17864-0.17677-0.3248-0.29509-0.3248-0.26292 0 0.12075 0.18738 0.61617 0.26843 0.70973 0.06843 0.079 0.07096 0.11337 0.01346 0.18266-0.07522 0.0906-0.25681 0.11519-0.3027 0.0409zm27.989-0.8027c-0.4062-0.31953 0.05309-1.0638 0.65648-1.0638 0.47366 0 0.64137 0.43975 0.31114 0.81586-0.32581 0.37108-0.69183 0.46486-0.96762 0.24792zm0.57432-0.31282c0.16307-0.19784 0.2682-0.45351 0.21029-0.51143-0.13196-0.13196-0.59548 0.33687-0.59548 0.60231 0 0.18306 0.19786 0.13638 0.38519-0.0909zm-27.018 0.17243c-0.32477-0.41287-0.15868-1.1936 0.27412-1.2887 0.092006-0.0202 0.18171-0.0601 0.19934-0.0886 0.017634-0.0285 0.075878-0.0519 0.12943-0.0519 0.074322 0 0.1193 0.0935 0.19007 0.39501 0.050982 0.21725 0.13209 0.47395 0.18022 0.57044 0.065559 0.13142 0.071719 0.19449 0.024545 0.25133-0.101 0.1217-0.26415 0.0879-0.348-0.0722l-0.077564-0.14804-0.037301 0.1865c-0.076265 0.38133-0.3349 0.50034-0.53486 0.24613zm0.40661-0.45971c0.019163-0.11592 0.035115-0.29472 0.035457-0.39733 0.0005396-0.16147-0.016393-0.18415-0.12584-0.16861-0.10399 0.0148-0.12943 0.0585-0.14321 0.24605-0.017657 0.24032 0.063599 0.53065 0.14852 0.53065 0.027629 0 0.065914-0.0948 0.085073-0.21076zm1.1905-0.25292c-0.041954-0.10046-0.094061-0.2775-0.11579-0.39341-0.041869-0.22336-0.07666-0.25103-0.18252-0.14516-0.049998 0.05-0.074952 0.0412-0.10491-0.0369-0.027265-0.0711 0.0007194-0.13486 0.091251-0.20818 0.11598-0.0939 0.12405-0.12697 0.072241-0.29579-0.066764-0.21754-0.010472-0.31161 0.18648-0.31161 0.12676 0 0.19148 0.0965 0.19148 0.28561 0 0.12185 0.067861 0.1356 0.23299 0.0472 0.09982-0.0534 0.111-0.0451 0.094659 0.0702-0.010193 0.072-0.075437 0.1558-0.14499 0.18631-0.14143 0.062-0.15207 0.13104-0.067295 0.4363 0.05582 0.201 0.17551 0.27501 0.24995 0.15455 0.063437-0.10263 0.14051-0.0581 0.14051 0.0811 0 0.1667-0.19059 0.3123-0.40879 0.3123-0.12623 0-0.17468-0.0376-0.23526-0.18266zm22.914 0.0892c-0.11982-0.0484-0.07833-0.23919 0.12881-0.59262 0.10948-0.1868 0.18679-0.35191 0.17179-0.36691-0.04189-0.0419-0.64395 0.54608-0.68203 0.66607-0.03972 0.12515-0.20928 0.13936-0.30381 0.0255-0.05346-0.0644-0.01571-0.16758 0.18983-0.5187 0.14111-0.24106 0.25656-0.47203 0.25656-0.51328 0-0.0507 0.05905-0.0693 0.18266-0.0574 0.15164 0.0146 0.18039 0.0391 0.16927 0.14406-0.01444 0.13641 0.03911 0.16255 0.13551 0.0662 0.03316-0.0332 0.14571-0.0521 0.2501-0.0421 0.26937 0.0258 0.2745 0.19128 0.01897 0.61193-0.11374 0.18724-0.21036 0.4021-0.2147 0.47747-0.0078 0.13529-0.12194 0.17292-0.30296 0.0999zm-21.734-0.35214c-0.026757-0.0433-0.096435-0.49802-0.15868-1.0355-0.014415-0.12447 0.13458-0.2357 0.25424-0.18979 0.059804 0.0229 0.096516 0.15631 0.12412 0.45085 0.021555 0.23005 0.072582 0.48262 0.11339 0.56128 0.053658 0.10343 0.057201 0.16002 0.012787 0.20443-0.075181 0.0752-0.30126 0.0809-0.34586 0.009zm19.796-0.25733c-0.30785-0.1726-0.24853-0.60974 0.12904-0.95085 0.28136-0.25419 0.59816-0.27849 0.8142-0.0625 0.1644 0.16439 0.1698 0.26421 0.03086 0.57014-0.18673 0.41116-0.6529 0.62325-0.9741 0.44317zm0.48382-0.32227c0.15596-0.20497 0.23276-0.44803 0.18274-0.57838-0.08432-0.21974-0.48462 0.29096-0.48462 0.61829 0 0.19897 0.13354 0.18132 0.30188-0.0399zm-19.283 0.26785c-0.18698-0.13373-0.26594-0.45648-0.1851-0.75668 0.13649-0.50688 0.5787-0.72281 0.87449-0.42702 0.24133 0.24133 0.17292 0.84065-0.12695 1.112-0.15967 0.1445-0.41511 0.17706-0.56244 0.0717zm0.4679-0.3415c0.019864-0.0791 0.02262-0.24453 0.00612-0.36752-0.065388-0.48749-0.32111-0.47461-0.32111 0.0162 0 0.30873 0.074426 0.49525 0.19762 0.49525 0.044692 0 0.097509-0.0648 0.11737-0.1439zm17.182 0.0532c-0.01914-0.0499 0.02259-0.22059 0.09274-0.37937s0.16859-0.39617 0.21878-0.52755c0.07062-0.18488 0.12031-0.23886 0.2199-0.23886 0.20354 0 0.20872 0.1453 0.01979 0.55519-0.09662 0.20962-0.17567 0.44865-0.17567 0.53119 0 0.12963-0.02321 0.15008-0.17037 0.15008-0.10492 0-0.18374-0.0348-0.20517-0.0907zm-16.231-0.0358c-0.012558-0.0386-0.031662-0.33036-0.042453-0.64826-0.01896-0.55868-0.015422-0.57907 0.10571-0.60947 0.15431-0.0387 0.24405 0.0116 0.24433 0.137 0 0.0599 0.041338 0.0276 0.11158-0.0876 0.085752-0.14064 0.1501-0.18266 0.27974-0.18266 0.19447 0 0.21008 0.0414 0.24375 0.64633 0.012045 0.21638 0.040727 0.43662 0.063738 0.48942 0.032053 0.0735 0.0068 0.10479-0.10789 0.13358-0.21846 0.0548-0.27228-0.0361-0.31046-0.52466-0.030277-0.3873-0.041032-0.41921-0.097105-0.28799-0.12035 0.28165-0.1933 0.63269-0.16299 0.78425 0.024617 0.12307 0.00666 0.15876-0.0934 0.18559-0.17819 0.0478-0.20898 0.0431-0.23454-0.0355zm15.115-0.21295c-0.10098-0.11158-0.10059-0.12434 0.0143-0.47772 0.11698-0.35981 0.11704-0.36309 0.0066-0.36309-0.17423 0-0.10505-0.19312 0.07672-0.21418 0.11539-0.0134 0.16584-0.0629 0.21464-0.21076 0.05406-0.16379 0.08982-0.19328 0.23442-0.19328 0.1551 0 0.16821 0.0141 0.14409 0.15455-0.01459 0.085-0.04546 0.19882-0.06859 0.25291-0.03489 0.0816-0.0123 0.0984 0.13256 0.0984 0.09604 0 0.17462 0.0202 0.17462 0.045 0 0.0936-0.14077 0.17985-0.29364 0.17985-0.16548 0-0.23606 0.10739-0.30885 0.46996-0.0312 0.15538-0.02629 0.15952 0.14459 0.12199 0.13168-0.0289 0.17689-0.019 0.17689 0.0387 0 0.22919-0.46585 0.29944-0.64835 0.0978zm-13.534-0.15675c-0.12655-0.13983-0.12347-0.65209 0.00543-0.90487 0.13977-0.27411 0.33077-0.38852 0.68176-0.40839l0.30248-0.0171-0.010827 0.4891c-0.00598 0.27011 0.016811 0.54073 0.050897 0.60442 0.0527 0.0985 0.041113 0.12472-0.079228 0.17955-0.17007 0.0775-0.31193-0.0118-0.3146-0.19805-0.00166-0.11769-0.0027-0.1178-0.063878-0.007-0.10761 0.19457-0.28762 0.36532-0.38512 0.36532-0.051643 0-0.13575-0.0462-0.18691-0.10278zm0.5208-0.64313c0.10698-0.31095 0.10722-0.32312 0.00719-0.37666-0.1408-0.0753-0.21847 0.0288-0.26282 0.35233-0.039072 0.28506 0.00681 0.48393 0.092001 0.39874 0.029194-0.0292 0.10283-0.19768 0.16364-0.37441zm11.959 0.65482c-0.022027-0.022-0.040052-0.0998-0.040052-0.17287v-0.13282l-0.16042 0.11861c-0.099739 0.0737-0.222 0.11158-0.32316 0.10003-0.14732-0.0168-0.16436-0.0408-0.17984-0.25369-0.020822-0.28634 0.13332-0.6145 0.39016-0.83062 0.18361-0.15449 0.2167-0.15764 0.69479-0.0661 0.06182 0.0118 0.14697 0.0248 0.18921 0.0287 0.08405 0.008 0.07885 0.0351-0.10073 0.52774-0.06493 0.17813-0.12457 0.40575-0.13253 0.50583-0.01176 0.14782-0.04101 0.18508-0.15592 0.19859-0.077798 0.009-0.15947-0.001-0.1815-0.0234zm-0.018763-0.65873c0.20792-0.24531 0.21772-0.27171 0.13254-0.35689-0.077695-0.0777-0.1061-0.0803-0.18282-0.0166-0.10932 0.0907-0.22231 0.30653-0.2747 0.52464-0.053509 0.22282 0.048042 0.17559 0.32497-0.15114zm-10.838 0.41696c-0.019815-0.0321-0.028524-0.38628-0.019361-0.78716 0.016159-0.70684 0.020566-0.72986 0.1457-0.76159 0.070973-0.018 0.15313-0.0178 0.18258 0.00037 0.031775 0.0196 0.043056 0.34592 0.027751 0.80261-0.025669 0.76592-0.026433 0.7696-0.16322 0.78679-0.075586 0.01-0.15364-0.009-0.17345-0.041zm9.2265 0.017c-0.06836-0.0684-0.044575-0.27157 0.071135-0.6079 0.061153-0.17774 0.12004-0.39035 0.13086-0.47247 0.01499-0.11376 0.055497-0.15354 0.17015-0.16712 0.21858-0.0259 0.24327 0.11173 0.095279 0.53093-0.070037 0.1984-0.13132 0.44231-0.13617 0.54203-0.00725 0.14888-0.03409 0.18429-0.15002 0.19795-0.077654 0.009-0.15921-0.001-0.18123-0.0234zm-1.2765-0.14691c-0.1132-0.0594-0.14355-0.12269-0.15617-0.32537-0.030381-0.48787 0.34068-0.8979 0.81258-0.8979 0.27777 0 0.37531 0.11643 0.22417 0.26757-0.082852 0.0829-0.099204 0.0821-0.19972-0.009-0.086736-0.0785-0.13338-0.0863-0.22458-0.0375-0.13418 0.0718-0.24977 0.4101-0.22241 0.65091 0.015687 0.13805 0.043807 0.16663 0.15955 0.16212 0.077281-0.003 0.18477-0.0247 0.23886-0.0482 0.12367-0.0537 0.13606 0.0929 0.016258 0.19231-0.12397 0.10289-0.48985 0.12818-0.64854 0.0448zm-13.786-0.1c-0.033146-0.12674 0.13899-0.25379 0.27378-0.20207 0.10793 0.0414 0.10162 0.23865-0.00899 0.2811-0.15672 0.0601-0.23447 0.0369-0.26479-0.079zm7.6038 0.0612c0-0.0327 0.15031-0.39476 0.33402-0.80462 0.25937-0.57866 0.36466-0.75653 0.47114-0.79589 0.25182-0.0931 0.31848-0.0163 0.32299 0.37209 0.00414 0.35496 0.063954 0.80874 0.13698 1.039 0.032629 0.10287 0.012963 0.13052-0.11584 0.16284-0.18563 0.0466-0.30626-0.0816-0.30626-0.32559 0-0.14269-0.018749-0.15787-0.19501-0.15787-0.1843 0-0.19927 0.0147-0.2725 0.26697-0.064669 0.22279-0.10215 0.2699-0.22651 0.28474-0.081961 0.01-0.14902-0.009-0.14902-0.0416zm0.7837-1.0365-0.00315-0.2885-0.10612 0.25291c-0.13792 0.32867-0.13792 0.38956 0 0.3535 0.094555-0.0247 0.11191-0.0752 0.10927-0.31791zm3.7943 0.89431c-0.35818-0.35818 0.052125-1.1547 0.59481-1.1547 0.42224 0 0.56017 0.34998 0.32742 0.83078-0.21132 0.43653-0.6541 0.59205-0.92223 0.32393zm0.55044-0.31502c0.096214-0.18933 0.13329-0.5613 0.062951-0.63164-0.067956-0.0679-0.23411 0.0718-0.29581 0.24877-0.034162 0.098-0.062115 0.25871-0.062115 0.35713 0 0.3203 0.13911 0.33244 0.29498 0.0257zm-3.4049 0.3593c-0.062385-0.0624-0.042089-0.22595 0.036086-0.29083 0.054939-0.0456 0.097482-0.0331 0.16806 0.0493 0.11446 0.13367 0.25521 0.143 0.30239 0.02 0.02294-0.0598-0.03467-0.15383-0.17037-0.27815-0.24493-0.22438-0.26603-0.41868-0.067079-0.61763 0.106-0.10601 0.19712-0.13796 0.39342-0.13796 0.21541 0 0.25547 0.0171 0.25547 0.10909 0 0.13703-0.10223 0.20458-0.18474 0.12207-0.0344-0.0344-0.10807-0.0625-0.16371-0.0625-0.16626 0-0.11641 0.18455 0.095549 0.35366 0.25692 0.205 0.24742 0.49055-0.023232 0.69835-0.094151 0.0723-0.57806 0.0983-0.64183 0.0346zm1.3489 0c-0.062385-0.0624-0.042089-0.22595 0.036087-0.29083 0.054939-0.0456 0.097482-0.0331 0.16806 0.0493 0.11236 0.13123 0.17128 0.13803 0.26084 0.0301 0.05355-0.0645 0.027364-0.12368-0.13362-0.30188-0.23645-0.26172-0.25139-0.41486-0.059215-0.60703 0.11729-0.11729 0.1851-0.13813 0.40307-0.1239 0.27154 0.0177 0.33387 0.0714 0.24549 0.21122-0.044382 0.0702-0.072038 0.0708-0.19693 0.004-0.11173-0.0598-0.16064-0.0624-0.21169-0.0114-0.051054 0.0511-0.018331 0.11561 0.14164 0.27944 0.25154 0.25761 0.26243 0.41546 0.043748 0.63415-0.13191 0.13191-0.21313 0.16428-0.41215 0.16428-0.13632 0-0.26473-0.0169-0.28533-0.0375zm8.7403-0.48184c0.02038-0.14285 0.18137-0.19653 0.29833-0.0995 0.12007 0.0996 0.03652 0.22535-0.14979 0.22535-0.14032 0-0.16368-0.0198-0.14854-0.12589zm-4.0005-0.74525c0-0.11803 0.026451-0.14051 0.16529-0.14051 0.18517 0 0.24505 0.0591 0.1942 0.19164-0.020417 0.0532-0.10011 0.0894-0.19689 0.0894-0.13597 0-0.1626-0.023-0.1626-0.1405z" style="fill:#000000" inkscape:connector-curvature="0"/>
  </g>
 </g>
</svg>
