<?xml version="1.0" encoding="UTF-8" standalone="no"?>
<svg xmlns:rdf="http://www.w3.org/1999/02/22-rdf-syntax-ns#" xmlns="http://www.w3.org/2000/svg" height="510.34" width="714.42" version="1.1" xmlns:cc="http://creativecommons.org/ns#" xmlns:dc="http://purl.org/dc/elements/1.1/" viewBox="0 0 714.42255 510.34159">
 <defs>
  <filter id="g" style="color-interpolation-filters:sRGB">
   <feGaussianBlur stdDeviation="1 1" result="blur"/>
  </filter>
  <filter id="h" style="color-interpolation-filters:sRGB">
   <feGaussianBlur stdDeviation="1 1" result="blur"/>
  </filter>
  <filter id="f" style="color-interpolation-filters:sRGB">
   <feGaussianBlur stdDeviation="1 1" result="blur"/>
  </filter>
  <filter id="e" style="color-interpolation-filters:sRGB">
   <feGaussianBlur stdDeviation="1 1" result="blur"/>
  </filter>
  <mask id="a" maskUnits="userSpaceOnUse">
   <path style="fill:#ffffff" d="m558.44 4826.8-48.718 84.382-48.718 84.382-48.718-84.382-48.718-84.382h97.436z" transform="matrix(1.0398 0 0 .61633 -17.709 1848.9)"/>
  </mask>
  <mask id="b" maskUnits="userSpaceOnUse">
   <path style="fill:#ffffff" d="m558.44 4826.8-48.718 84.382-48.718 84.382-48.718-84.382-48.718-84.382h97.436z" transform="matrix(1.0398 0 0 .61633 -17.709 1848.9)"/>
  </mask>
  <mask id="c" maskUnits="userSpaceOnUse">
   <path style="fill:#ffffff" d="m558.44 4826.8-48.718 84.382-48.718 84.382-48.718-84.382-48.718-84.382h97.436z" transform="matrix(1.0398 0 0 .61633 -17.709 1848.9)"/>
  </mask>
  <mask id="d" maskUnits="userSpaceOnUse">
   <path style="fill:#ffffff" d="m558.44 4826.8-48.718 84.382-48.718 84.382-48.718-84.382-48.718-84.382h97.436z" transform="matrix(1.0398 0 0 .61633 -17.709 1848.9)"/>
  </mask>
  <clipPath id="r" clipPathUnits="userSpaceOnUse">
   <rect style="fill:#ffffff;color-rendering:auto;color:#000000;isolation:auto;mix-blend-mode:normal;shape-rendering:auto;solid-color:#000000;image-rendering:auto" height="510.34" width="714.42" y="296.65" x="-151.67"/>
  </clipPath>
  <clipPath id="q" clipPathUnits="userSpaceOnUse">
   <rect style="fill:#ffffff;color-rendering:auto;color:#000000;isolation:auto;mix-blend-mode:normal;shape-rendering:auto;solid-color:#000000;image-rendering:auto" height="340.09" width="472.13" y="3585.2" x="473.2"/>
  </clipPath>
  <clipPath id="p" clipPathUnits="userSpaceOnUse">
   <rect style="fill:#ffffff;color-rendering:auto;color:#000000;isolation:auto;mix-blend-mode:normal;shape-rendering:auto;solid-color:#000000;image-rendering:auto" height="340.09" width="472.13" y="3585.2" x="473.2"/>
  </clipPath>
  <clipPath id="o" clipPathUnits="userSpaceOnUse">
   <rect style="fill:#ffffff;color-rendering:auto;color:#000000;isolation:auto;mix-blend-mode:normal;shape-rendering:auto;solid-color:#000000;image-rendering:auto" height="510.34" width="714.42" y="296.65" x="-151.67"/>
  </clipPath>
  <clipPath id="n" clipPathUnits="userSpaceOnUse">
   <rect style="fill:#ffffff;color-rendering:auto;color:#000000;isolation:auto;mix-blend-mode:normal;shape-rendering:auto;solid-color:#000000;image-rendering:auto" height="340.09" width="472.13" y="3585.2" x="473.2"/>
  </clipPath>
  <clipPath id="m" clipPathUnits="userSpaceOnUse">
   <rect style="fill:#ffffff;color-rendering:auto;color:#000000;isolation:auto;mix-blend-mode:normal;shape-rendering:auto;solid-color:#000000;image-rendering:auto" height="510.34" width="714.42" y="296.65" x="-151.67"/>
  </clipPath>
  <clipPath id="l" clipPathUnits="userSpaceOnUse">
   <rect style="fill:#ffffff;color-rendering:auto;color:#000000;isolation:auto;mix-blend-mode:normal;shape-rendering:auto;solid-color:#000000;image-rendering:auto" height="340.09" width="472.13" y="3585.2" x="473.2"/>
  </clipPath>
  <clipPath id="k" clipPathUnits="userSpaceOnUse">
   <rect style="fill:#ffffff;color-rendering:auto;color:#000000;isolation:auto;mix-blend-mode:normal;shape-rendering:auto;solid-color:#000000;image-rendering:auto" height="510.34" width="714.42" y="296.65" x="-151.67"/>
  </clipPath>
  <clipPath id="j" clipPathUnits="userSpaceOnUse">
   <rect style="fill:#ffffff;color-rendering:auto;color:#000000;isolation:auto;mix-blend-mode:normal;shape-rendering:auto;solid-color:#000000;image-rendering:auto" height="510.34" width="714.42" y="296.65" x="-151.67"/>
  </clipPath>
  <clipPath id="i" clipPathUnits="userSpaceOnUse">
   <rect style="fill:#ffffff;color-rendering:auto;color:#000000;isolation:auto;mix-blend-mode:normal;shape-rendering:auto;solid-color:#000000;image-rendering:auto" transform="rotate(-45)" height="340.09" width="472.13" y="3468.4" x="-3157.2"/>
  </clipPath>
 </defs>
 <g transform="translate(151.67 -296.65)">
  <rect id="bg" style="fill:#e2d3b2" clip-path="url(#j)" height="547.14" width="751.92" y="280.54" x="-168.43"/>
  <path id="yes-bg" style="fill-rule:evenodd;fill:#1f69a8" d="m567.04 297.2v510.21l-507.12-147.45 442.06-362.76z" clip-path="url(#k)"/>
  <path id="dark-bg-blur" style="filter:url(#g);fill-rule:evenodd;fill:#000000" d="m613.03 3584.6s56.178 44.988 81.17 71.672c13.117 14.006-2.5905 28.496-2.5905 28.496l-18.134 20.724s-0.81232 13.778-0.86351 38.858c-60.344-4.9349-59.245-0.6323-128.66 39.722-10.866 11.286 1.3735 20.036 19.6 34.218 18.227 14.182 51.94 30.343 93.52 42.635 14.942 4.7234 11.973 13.065 11.226 17.27 7.464 23.748-32.772 8.5666-38.858 11.226 15.547 15.678 20.724 21.588 20.724 21.588l9.4986 2.5906s2.0172-2.6721 3.454-2.5906c8.8421-3.914 15.543 14.68 15.543 14.68l269.51-0.1805-335.14-98.26 291.76-241.76z" clip-path="url(#l)" transform="matrix(1.5132 0 0 1.5006 -867.7 -5083.3)"/>
  <path id="darkbg" style="fill-rule:evenodd;fill:#000000" d="m59.919 295.84s85.008 67.509 122.82 107.55c19.849 21.017-3.9199 42.761-3.9199 42.761l-27.44 31.099s-1.2292 20.676-1.3066 58.311c-91.312-7.4054-89.648-0.9489-194.69 59.606-16.442 16.936 2.0784 30.066 29.659 51.348s78.594 45.532 141.51 63.978c22.609 7.088 18.118 19.606 16.986 25.916 11.294 35.636-49.589 12.855-58.799 16.845 23.526 23.527 31.359 32.395 31.359 32.395l14.373 3.8875s3.0523-4.0098 5.2266-3.8875c13.38-5.8734 23.52 22.028 23.52 22.028l407.82-0.29-507.12-147.45 441.48-362.79z" clip-path="url(#m)"/>
  <path id="yes" style="filter:url(#e);fill:#e2d3b2" d="m919.4 3897.9-3.6699-0.8327-1.3163-5.2404c-0.724-2.8823-0.4886-6.0161 0.5231-6.9642l1.8393-1.7236 4.7202 1.8096 4.7202 1.8096v5.1842c0 5.8458-1.5065 7.1624-6.8166 5.9575zm-48.252-13.532-22.552-6.3654v-6.0751-6.075l5.7691 1.397c3.1731 0.7684 9.743 2.569 14.6 4.0015l8.8308 2.6045 3.2837-2.3992 3.2836-2.3991-0.5762-36.673-0.5762-36.673-16.783-1.0481-16.783-1.0481-0.5512-72.481-0.5512-72.481 23.036-19.226c12.67-10.574 23.538-19.226 24.152-19.226 0.6141 0 1.1166 25.531 1.1166 56.735v56.735l-5.7692-0.6632-5.7691-0.6633-0.5701-40.434-0.57-40.434-2.9955-1.1485-2.9954-1.1485-8.4972 6.823-8.4973 6.823v63.358 63.358l3.3184 1.2723c1.8251 0.6998 9.8494 1.2724 17.832 1.2724h14.514v54.5c0 29.975-0.7081 54.421-1.5734 54.324-0.8654-0.097-11.722-3.0408-24.126-6.5417zm-67.656-18.086-20.979-5.5896-0.5505-77.173c-0.3027-42.445 0.1693-78.404 1.0489-79.907 1.3049-2.2304 30.057-26.852 45.13-38.647l3.6713-2.8727v30.651 30.651h-6.2936-6.2937v-14.549-14.549l-2.1901-1.3524c-2.4512-1.5137-8.5901 2.1175-17.215 10.183l-5.7692 5.3949v32.728 32.728l2.1717 4.0545 2.1717 4.0545h6.3591 6.3592l-0.6639 5.7644-0.6638 5.7644-6.2867 0.7132c-3.4578 0.3923-6.9835 1.8072-7.8349 3.1442-0.8515 1.3371-1.5626 12.976-1.5803 25.863l-0.032 23.432 3.0439 3.0414c3.4388 3.4359 16.931 6.5101 20.068 4.5726l2.0621-1.2735v-22.934-22.934h6.2937 6.2936v32.49 32.49l-3.6713-0.1748c-2.0192-0.096-13.112-2.6902-24.65-5.7645zm114.86 1.6817-4.7202-1.8958v-132.81-132.81l4.8554-4.5577c2.6705-2.5068 5.5026-4.5577 6.2936-4.5577s1.4382 62.727 1.4382 139.39c0 76.667-0.708 139.33-1.5734 139.26-0.8653-0.073-3.6975-0.986-6.2936-2.0286zm-180.42-20.188-2.6224-1.0573-0.032-23.407c-0.017-12.874-0.7339-24.509-1.5917-25.857-0.8578-1.3473-4.8555-2.7622-8.8838-3.1442l-7.3243-0.6946-0.6126-18.79-0.6127-18.79 4.8084-3.6972c2.6446-2.0334 5.5164-3.7181 6.3818-3.7438 0.8654-0.026 1.5734 6.4408 1.5734 14.37v14.416l3.0004 2.4881 3.0004 2.4881 8.0134-0.6593 8.0134-0.6593 0.5929-26.159 0.5929-26.159 5.4973-5.7332c3.0235-3.1533 6.2968-5.2395 7.2741-4.636l1.7768 1.0973v35.254 35.254l-2.8153 2.3346c-1.5485 1.284-3.3056 1.8448-3.9048 1.2461s-3.5805-0.1423-6.625 1.0144l-5.5357 2.1029v26.254 26.254l-3.6712-0.1654c-2.0192-0.091-4.8514-0.6412-6.2936-1.2227z" clip-path="url(#n)" transform="matrix(1.5132 0 0 1.5006 -867.7 -5083.3)"/>
  <path id="teeth" style="fill:#e2d3b2" d="m-21.586 610.11c-2.3029-7.1902 0.60875-13.575 4.972-10.903 3.8519 2.3588 3.8472 17.166 0 17.166-1.6283 0-3.8633-2.8183-4.9665-6.2628zm21.419 1.0341c-5.4552-2.1812-5.0045-18.313 0.64113-22.956 2.535-2.0847 7.1776-3.3074 10.317-2.7174l5.7077 1.0731 1.0659 9.2545 1.066 9.2544-5.6408 4.0871c-5.9979 4.3458-6.9403 4.4894-13.157 2.0038zm105.18-7.2601-6.7232-2.7286-1.6873-8.746c-2.0554-10.654 2.3279-23.219 8.0996-23.219 2.3285 0 6.8671 1.9082 10.086 4.2404l5.8524 4.2403 0.3096 13.749 0.30959 13.749-4.7617 0.7218c-2.6188 0.3968-7.7871-0.5063-11.485-2.007zm-75.473-5.0688c-1.0597-2.7365-1.9269-9.0791-1.9269-14.095v-9.1193l7.7558-1.9289c10.866-2.7023 14.465 0.5059 14.465 12.893v10.713l-6.1402 3.2562c-8.487 4.5006-11.906 4.0854-14.154-1.7194zm33.117-7.3078c-2.1009-5.0258-3.3456-12.457-2.7659-16.514l1.0539-7.3761 10.116-0.9709 10.116-0.9707 3.0981 11.118c1.7038 6.1147 2.3418 13.983 1.4175 17.485l-1.6804 6.3671h-8.7679-8.768zm69.713-1.6858c0-5.6378 5.2448-9.0968 9.6775-6.3822l3.3285 2.0384-3.7173 4.4382c-4.7965 5.7266-9.2888 5.681-9.2888-0.095z" clip-path="url(#o)"/>
  <path id="cheek" style="filter:url(#f);fill-rule:evenodd;fill:#000000" d="m583.3 3689.9c-29.379 37.233-39.781 47.619-54.234 64.142-17.46 18.464 1.043 35.461 1.043 35.461s-9.0877-16.971 4.6933-30.767c2.6558-7.7871 58.187-49.06 48.498-68.836z" clip-path="url(#p)" transform="matrix(1.5132 0 0 1.5006 -867.7 -5083.3)"/>
  <path id="nostril" style="filter:url(#h);fill-rule:evenodd;fill:#000000" d="m626.25 3693.3c6.134-2.8487 6.0477-2.4921 16.394-5.0898 13.122-2.5789 8.9428 1.8526 2.6308 5.6758-7.5091 4.671-8.2465 5.0166-12.6 6.9042-13.708 4.1483-9.7483-5.1627-6.4257-7.4902z" clip-path="url(#q)" transform="matrix(1.5132 0 0 1.5006 -867.7 -5083.3)"/>
  <path id="yes-outline" style="stroke:#e2d3b2;stroke-width:1.7856;fill:#e2d3b2" d="m564.37 548.89v-252.43l-10.357-0.9886-10.357-0.9886 0.12408 217.79 0.12408 217.79-2.6632 2.6388-2.6632 2.6388-12.499-4.2875-12.499-4.2877-0.81636-206.32-0.81636-206.32 11.724-8.8274 11.723-8.8275-17.256-1.9058-17.256-1.9059 33.332 0.3331 33.332 0.3332 0.81227 254c0.44684 139.7-0.26722 254-1.5872 254-1.3198 0.0002-2.3996-113.59-2.3996-252.43zm-23.808-33.814v-213.89h-2.9309c-1.612 0-7.326 3.6644-12.698 8.1433l-9.7669 8.1434v202.45 202.45l5.5553 3.2061c3.0554 1.7635 8.7695 3.2493 12.698 3.3018l7.1425 0.096v-213.89zm-19.047 257.01-7.9361-3.9784v-14.019-14.019l5.8064-1.1079c3.1936-0.6094 9.9789 0.6044 15.079 2.6976l9.2723 3.8057v15.346 15.346l-7.1425-0.046c-3.9285-0.026-10.714-1.8368-15.079-4.0248zm19.047-11.734v-12.66l-8.1427-3.0677c-4.4785-1.6873-10.193-3.0677-12.698-3.0677h-4.5551v12.684 12.683l7.1426 2.8449c3.9284 1.5645 9.6422 2.9344 12.698 3.0441l5.5553 0.1993zm-89.599-5.9412c-16.98-4.8449-33.05-10.6-35.713-12.789l-4.84-3.9804v-10.239c0-5.6314 1.8116-11.729 4.0256-13.55l4.0256-3.3105 21.993 6.043 21.994 6.0431 2.5023-3.9041c2.9241-4.5622 3.5122-87.534 0.67245-94.866l-1.9267-4.9756h-22.834-22.834l-3.8094-3.7746-3.8093-3.7746v-109.41-109.41l35.712-30.317c19.642-16.674 39-32.479 43.018-35.121l7.3055-4.804 3.061 3.0331 3.0612 3.0334-0.84329 90.939-0.84329 90.939-8.2839 2.8855c-4.5562 1.587-12.056 1.9475-16.666 0.8009l-8.3819-2.0845v-59.705-59.705h-4.2083c-2.3146 0-7.3142 3.2761-11.11 7.2802l-6.9024 7.28v88.658 88.658h23.202 23.202l5.4231 3.9319 5.4231 3.9318-0.84829 84.929-0.84828 84.929-9.5233 0.6082c-5.2377 0.3346-23.416-3.3557-40.396-8.2004zm47.593-77.125 0.84844-81.572-3.376-3.357c-1.8568-1.8465-14.381-4.0648-27.831-4.9298l-24.455-1.5728-0.84253-90.566-0.84254-90.566 10.303-9.3243c5.6665-5.1283 11.76-8.8441 13.54-8.2574l3.2376 1.0668 0.86191 60.248 0.86205 60.248 8.3591 2.0789 8.3589 2.0788 5.064-3.1634 5.064-3.1636 0.84299-88.519 0.84314-88.519h-4.5208c-4.6181 0-65.676 48.615-75.733 60.298l-5.5552 6.4542v104.77c0 57.623 0.86705 107.01 1.9269 109.74l1.9267 4.9756h24.716 24.716l1.9269 4.9754c3.008 7.7676 2.1646 96.729-0.96344 101.62l-2.7932 4.3704-20.766-5.5697c-11.421-3.0635-22.999-4.7206-25.728-3.6828l-4.9626 1.8871 0.0484 7.176c0.0257 3.9469 1.2245 9.0131 2.6618 11.258 3.1624 4.94 62.325 22.334 73.476 21.603l7.9362-0.5206 0.84828-81.572zm-142.97 51.804c-18.803-4.909-36.302-9.7297-38.887-10.713l-4.6999-1.7871v-122.74-122.74l38.829-31.864c21.356-17.525 40.785-32.608 43.175-33.517 8.0628-3.0657 9.9572 6.9538 10.006 52.923l0.0484 45.795-4.0947 5.5488-4.0948 5.5487-12.571-1.0156-12.571-1.0156-1.9024-19.71c-1.0464-10.84-2.8377-20.636-3.9806-21.769-1.1431-1.1327-5.6437 1.2599-10.002 5.3167l-7.9236 7.3761v49.78 49.78h9.1347c5.024 0 10.83 2.0244 12.903 4.4988l3.768 4.4987-0.9984 12.015-0.99854 12.015-11.904 0.9762-11.904 0.9763v35.924 35.924l8.084 2.0103c4.4462 1.1058 9.0775 1.026 10.292-0.1773 1.2143-1.2034 2.2192-16.117 2.233-33.141 0.0151-17.024 1.1594-32.078 2.5458-33.454 1.3865-1.3752 8.4036-2.2679 15.594-1.9838l13.073 0.5165 2.6108 4.0783c2.9982 4.6831 3.6882 96.97 0.78125 104.48-2.5308 6.5352-6.1694 6.1954-46.545-4.3459zm43.371 1.2003c1.0598-2.7365 1.9269-24.561 1.9269-48.498s-0.86705-45.762-1.9269-48.498l-1.9269-4.9754h-12.358-12.358v33.126 33.127l-5.1331 1.9518c-2.8233 1.0734-8.8943 0.6411-13.491-0.961l-8.3583-2.9125v-37.67-37.67l11.11-1.5727 11.111-1.5728 1.0291-10.68 1.0291-10.679-4.2036-2.6408c-2.312-1.4524-8.132-2.6625-12.933-2.6889l-8.7297-0.048v-51.741-51.742l10.317-9.5813c5.6744-5.2699 11.324-9.588 12.554-9.596 2.4974-0.016 5.2395 13.972 6.472 33.013l0.81424 12.582 9.3669 1.0563 9.3667 1.0562 4.1246-5.5894 4.1246-5.5893-0.0484-42.649-0.0484-42.65-2.9319-4.5932-2.9321-4.5932-5.749 4.818c-3.1621 2.6497-19.32 15.925-35.906 29.5-16.587 13.575-31.943 26.838-34.125 29.472l-3.968 4.7904v118.74 118.74l3.6661 2.2452c3.6826 2.2553 67.772 19.325 74.562 19.859 1.9957 0.157 4.4956-1.9535 5.5553-4.6902zm-147.27-30.552-11.111-3.7917-1.5872-37.746-1.5872-37.746-9.5233-1.0647c-5.2378-0.5856-11.309-2.5282-13.491-4.3171l-3.968-3.2522v-28.412-28.412l12.831-12.095c7.0573-6.6523 14.856-12.095 17.331-12.095h4.4997l0.92197 25.95 0.92198 25.95 10.317 0.9857 10.317 0.9856v-39.289-39.289l11.834-9.6656c6.5086-5.3161 14.394-9.6656 17.524-9.6656h5.69l-0.85797 65.269-0.85812 65.269-12.698 1.5727-12.698 1.5728-1.5872 40.856-1.5873 40.856-4.7617 0.682c-2.6188 0.3752-9.7613-1.0241-15.872-3.1097zm19.047-41.792 1.5872-40.637 12.698-1.5727 12.698-1.5728 0.86568-59.536 0.86569-59.536-3.2403-3.2109-3.2405-3.2108-11.023 10.587-11.023 10.587-0.88703 38.005-0.88702 38.005h-12.698-12.698l-0.92712-24.378-0.92712-24.378h-3.9206c-2.1564 0-8.5246 4.1666-14.152 9.2592l-10.231 9.2592 0.0484 26.128c0.0257 14.37 1.1105 27.782 2.4085 29.804 1.298 2.0218 7.3472 4.145 13.443 4.7184l11.083 1.0422 0.90322 35.982 0.90321 35.982 3.2954 3.9345c3.2636 3.8964 14.171 7.1031 20.294 5.9659l3.1745-0.5896 1.5872-40.637z" clip-path="url(#r)"/>
 </g>
 <g transform="translate(-16.759 -16.113)">
  <g id="diagnolbars" style="fill:#e91d24" clip-path="url(#i)" transform="matrix(1.07 1.0611 -1.07 1.0611 4794.1 -5188.5)">
   <rect style="fill:#e91d24" mask="url(#a)" height="14" width="195.25" y="4828.2" x="363.75"/>
   <rect style="fill:#e91d24" mask="url(#b)" height="14" width="195.25" y="4856.7" x="365.75"/>
   <rect style="fill:#e91d24" mask="url(#c)" height="14" width="195.25" y="4885.2" x="363"/>
   <rect style="fill:#e91d24" mask="url(#d)" height="14" width="195.25" y="4914" x="365.25"/>
  </g>
 </g>
</svg>
